/* XPM */
static char *result[] = {
/* columns rows colors chars-per-pixel */
"80 80 128 2 ",
"   c #252241",
".  c #292645",
"X  c #27264B",
"o  c #29274C",
"O  c #2B294D",
"+  c #322441",
"@  c #3B2542",
"#  c #372A46",
"$  c #3E2C47",
"%  c #322749",
"&  c #33294B",
"*  c #3B2B4C",
"=  c #282750",
"-  c #2A2A54",
";  c #2A2C5B",
":  c #302F56",
">  c #312C5D",
",  c #2F3056",
"<  c #2E315A",
"1  c #34355E",
"2  c #2B2E63",
"3  c #352E65",
"4  c #2C3166",
"5  c #2F3866",
"6  c #2D326A",
"7  c #2F386B",
"8  c #353660",
"9  c #363A64",
"0  c #383B67",
"q  c #3B356C",
"w  c #313B6D",
"e  c #393F6A",
"r  c #2F3771",
"t  c #2F3871",
"y  c #3B3374",
"u  c #313B74",
"i  c #3E357B",
"p  c #333F7A",
"a  c #442642",
"s  c #4C2743",
"d  c #432F4B",
"f  c #502743",
"g  c #562843",
"h  c #582943",
"j  c #512F49",
"k  c #4B324B",
"l  c #5B384F",
"z  c #5D3950",
"x  c #642A44",
"c  c #6C2B44",
"v  c #64344B",
"b  c #69364C",
"n  c #73394E",
"m  c #7E3B4F",
"M  c #613B50",
"N  c #6C3F53",
"B  c #7F3C50",
"V  c #40377F",
"C  c #453C7D",
"Z  c #3A406D",
"A  c #334275",
"S  c #3E4574",
"D  c #3F4877",
"F  c #34427B",
"G  c #36487F",
"H  c #3F4878",
"J  c #6D4053",
"K  c #734355",
"L  c #7A4557",
"P  c #404877",
"I  c #424C7D",
"U  c #84495A",
"Y  c #8A4C5B",
"T  c #914F5D",
"R  c #96515E",
"E  c #413780",
"W  c #433985",
"Q  c #453C88",
"!  c #483F8B",
"~  c #364582",
"^  c #374985",
"/  c #384C85",
"(  c #394D8B",
")  c #395186",
"_  c #3B548D",
"`  c #3C588D",
"'  c #3C5393",
"]  c #3E5B94",
"[  c #3F5B99",
"{  c #494083",
"}  c #5C558C",
"|  c #4D4792",
" . c #534F99",
".. c #405D9C",
"X. c #56539B",
"o. c #59579F",
"O. c #41639D",
"+. c #6C6599",
"@. c #736C9E",
"#. c #5D5CA3",
"$. c #4264A2",
"%. c #446BA5",
"&. c #466EAB",
"*. c #5F60A6",
"=. c #4770AD",
"-. c #4874AE",
";. c #4976B4",
":. c #4B7BB5",
">. c #4C7DB9",
",. c #6262A6",
"<. c #6F68A1",
"1. c #6163A8",
"2. c #676BAF",
"3. c #746FA9",
"4. c #7772A8",
"5. c #7F7BAE",
"6. c #696DB1",
"7. c #7073B3",
"8. c #4D81BC",
"9. c #4F85C1",
"0. c #5087C3",
"q. c #5089C4",
"w. c #5493CD",
"e. c #589AD5",
"r. c #5BA2DD",
"t. c #8983B1",
"y. c #908FBD",
"u. c #9694BE",
/* pixels */
"I I I I I I I I I I { H H I I I I I I I I I I I I I I I H { H H ` I H H H I I I H H H H { H H H H I I I I I I I I I I I I I I I I I I I I I I I I I I I I I I I ",
"I I I I I I I I I I I I ..I I I { I I I I I I I I I I I H H H D D D D D H D D D S G D D D D D A H ..I I I I I I I I I I I I I I I I I I I I I I I I I I I I I I ",
"I I I I I I I I I I I I I I I I I I I I I I I I I D I I D D < - O , O O O , , O - O - - , , O - Z I I I I I I I I I I I I I I I I I I I I I I I I I I I I I I I ",
"I I I I I I I I I I I I I I I I I H { I I I I I D S D D Z 5 < = O O O - - O X   = = = = , O O - , 9 Z P Z Z I I I I I I I I I I I I I I { I I I I I I I I I I I ",
"I I I I I I I I I I I I I I I I I I I I H H D S Z , A <   O 7 F F F F F A 7 = X 2 u F F u ~ p p , . O A , , Z A S P P P I S D D P P P P P S P S I I I I I I I I ",
"I I I I I I I I I I I I I I I I I I I H H Z , O , < - - ; A %.q.9.q.9.q.8.G = X 6 %.q.q.q.q.q.9.G < ; X ; ; O X , 1 1 1 9 9 9 9 8 9 8 8 9 9 9 8 0 S I I I I I I ",
"I I I I { I I I I I I I I I I I I I H 9 < , ; ; < ; X - 4 t ] =.=.=.=.=.%.A = X 6 [ =.=.=.=.&.&.G 6 ; X ; 2 ; ; - O O 1 1 8 1 1 1 1 8 1 1 8 8 8 1 Z S I I I I I ",
"I I I I I I I I I I I I I I I I H D Z < - < _ ' ) 4 - - ; 7 ^ ' ' ' ' ' ' t = X 6 ^ ' ' ' ' ' ' A < ; = ; A ` ` w o O - 1 1 1 1 8 8 > 8 1 1 8 9 1 1 0 I I I I I ",
"I I I I I I I I I I I I I I I I I e O 5 t ) q.e.>.F 6 - X 4 ~ ( ' ' ' ' ' t ;   2 ^ ' ' ' ' ' ' r ; = 2 t ..w.e.O.u w O - 1 1 1 1 1 1 1 1 8 0 9 1 1 0 I I I I I ",
"I I I I I I I I I I I I I I I I 0 < 7 O.q.8.%.$.&.=.~ - X 2 r ~ ' ' ' ' ( t = X 4 ^ ' ' ( ' ~ t 2 - = 2 $.>.$.$.:.q.:.^ ; O 1 1 1 1 1 1 1 1 d 1 1 1 0 I I I I I ",
"I I I I I I I I I I I I D S 1 , < w %.=.:.=.[ ' [ %.p 2 = - 2 6 p p p p p 6 = X 2 t p p p p t 6 ; - 2 2 [ %.' ' %.;.:.;.) , O O : 1 1 1 8 1 8 8 1 1 Z P I I I I ",
"I I I I I I I I I I I I D 9 O O 7 [ 9.&.' ' ' ' ' ( u 2 2 X = 2 6 6 6 6 2 2 = X ; 2 6 6 6 6 6 6 X ; 2 6 ~ ' ' ' ' ' ..>.-.F O o - : 1 1 1 8 1 1 1 1 Z I I I I I ",
"I I I I I I I I I H H D 9 O < 4 ' :.$.[ ' ' ' ' ' ( r 2 2     = 2 2 2 2 2 X     X ; 2 2 2 2 2 2 X - 2 6 ~ ( ' ' ' ' [ [ -.&.7 2 ; O 1 1 9 1 1 1 1 1 Z I I I I I ",
"I I I I I I I I I H D , , - - ; p ( ( ' ' ' ' ' ( u r ;       X X X X X X         X X X X X X X   X = 2 r ~ ' ' ' ' ' ' _ G 4 - - - o - 1 1 1 1 1 1 0 I I I I I ",
"I I I I I I I I I I Z O - 2 - - 2 6 p ( ' ' ' ^ p 2 ; X                                               ; 2 r ~ ' ' ' ( ~ t 2 ; - ; ; . & 1 1 1 9 1 1 0 I I I I { ",
"I I I I I I I P ..H A O 4 F A ; = 6 6 ~ ( ( ( p 6 ; X                                                   - 2 r ~ ( ( ( t 6 ; X 5 F u O : 1 1 1 1 1 1 8 I I I I I ",
"I I I I I I I I H Z , ; O.q.>./ ; - 2 7 t t t 6 ; X                                                       ; 2 r r r r 6 2 ; 6 $.q.=.7 - = 1 1 1 8 8 0 I I I I I ",
"I I I I I I I I H 9 O 2 _ =.=.:.` ; = 2 4 4 4 ; X                                                           = 2 6 6 2 = = u -.-.&.$.t - . 1 1 1 1 1 0 I I I I I ",
"I I I I I I I I A < 4 ` ] ' [ :.-.) ; - ; ; ; X                                                               = ; = ; = A %.>.$.' ] [ p = ; 1 1 8 1 0 I I I I I ",
"I I I I I I I I < = G 9.-.' ' ' ;.:.7 =           +                                                                 X ; ..9...' ' $.w.O.; O , 1 1 1 8 I I I I I ",
"I I I I I I I I ; = t [ [ ' ' ' [ [ 7 X         + s +                                                                 2 ^ ..' ' ' [ $.~ ; X , 1 9 1 0 P I I I I ",
"I I I I I I S 9 ; 2 r t ( ' ' ' ( t 6 =       + g x g @                                                               ; 7 ~ ' ' ' ( p t 4 - O , 1 e P I I I I I ",
"I I I I I I Z . ; 2 6 6 p ~ ^ ^ p 2 ; X   . $ h c c c s                                                               ; 2 t ~ ^ ( F 6 6 6 2 X , e P P I I I I I ",
"I I I I I I Z . ; 6 2 6 6 6 6 6 2 2 .     $ U B c c c s                                                                 = 4 6 6 2 6 6 6 2 2 X , P P I I I I I I ",
"I I I I I I D Z , O - X ; 2 2 2 ; X     d N T B c c c s + a +                                                             - 2 6 2 2 - X = ; 1 S I I I I I I I I ",
"I I I I I I D Z , O - - ; - ; = X       j T R B c c c s + h @                                                             X = - - - = ; = - < A I I I I I I I I ",
"I I I I I I Z O ; 2 4 4 ; X X         & M T R B c c c f + h @                                                                 X X = 2 4 2 2 X 5 I I I I I I I I ",
"I I I I H H Z . ; 4 6 6 2 2 2 X     . M Y R R B c c c s + h @                                                                 ; 2 4 4 6 6 2 X < I I I I I I I ` ",
"I I I I I I Z . ; ^ %.-.-.[ r ; o   . N R R R B c c c s + h @                                                               ; 2 ^ %.;.;.O.5 . 1 I I I I I I I I ",
"I I I I I I Z . ; _ 9.9.9.:.] u -   + N R R R B c c c s + h @                                                             X 4 ^ %.9.9.9.%.A X 1 I I I I I I I I ",
"I I I I I I S . ; F ' [ [ &.>.^ -   o N R R R B c c c s + h @                                                             X r $.:.[ [ [ ) 5 . 1 I I I I I I I I ",
"I I I I I I Z . ; F _ ' ' [ [ p -   . N R R R B c c c f + h @                                                             X 6 _ $.' ' ` ^ 4 O 9 I I I I I I I I ",
"I I I I I I Z X ; p ' ' ' ' ( u -   . N R R R B c c c s + h @                                                                 2 ' ' ' ' ^ 6 X < I I I I I I I I ",
"I I I I I I Z . ; p ( ' ' ' ( u -   . l K K K v h h x s + h @                                                               ; t ' ' ' ' ^ 4 X < I I I I I I I I ",
"I I I I I I Z . ; u ( ' ' ( ^ t -     . & & % % + + h a + h @                                                             X 2 ~ ( ' ' ( ^ 6 X 5 I I I I I I I I ",
"I I I I I I Z . ; r u u u p t 6 ;     > y y y y 3 + @ + + h @                                                             X 2 6 u u u u t 2 X ; I I I I I I I I ",
"I I I I I I e . ; 2 6 6 6 6 2 ; X o 3 } <.<.<.<.} 1 .   + h @                                                             X - 2 4 4 4 4 6 < X < I I I I { H I I ",
"I I I I I I S : ; ; ; 2 ; 2 ; X   - C 3.u.u.u.u.5.Q > o + h @                                                                 - 2 ; 2 ; ; ; , Z I I I I I I I I ",
"I I I I I I H H ; X   X X   .     - V #.7.7.7.7.,.Q E 3 + h @                                                                   X   X X   = Z D I I I I I I I I ",
"I I I I I / S < ; = ; ; - ; - .   & W o.6.6.6.6.,.! W 3 + h @                                                                 = - ; - ; ; ; < Z I I I I I { I I ",
"I I I I I I Z o ; p _ ' ' ` / 4 X - E  .*.2.6.6.*.! W 3 + h @                                                               = F ' ` ' ] ^ 4 X < I I I I I I I I ",
"I I I I I I Z . ; ( 9.0.q.q.>.G - - E Q  .#.1.,.o.W V > + h @                                                             X 4 %.q.q.q.q.-.7 O < I I I I I I I I ",
"I I I I I I Z . ; ~ ..$.$.$.[ p > = E E Q ! ! ! Q V > . + h @                                                             X 4 ) ..$.$.$.' 6 X < I I I I I I I I ",
"I I I I I I Z X 2 p ' ' ' ' ( u - o 3 V Q W W Q V 3     + h @                                                             X 6 ^ ' ' ' ' ^ 4 X < I I I I I I I I ",
"I I I I I I Z . ; p ( ' ' ' ( u ;     3 V y y i 3 . + . + h a                                                             X 6 ~ ' ' ' ' / 5 X 1 I I I I I I I I ",
"I I I I I I Z . ; p ( ' ' ' ( t ;     & * * * & % @ h s + h @                                                             X 6 ~ ' ' ' ' ^ 5 . 1 I I I I I I I I ",
"I I I I I ) Z . ; p ' ' ' ' ( p ;   + l L L B b h h c s + g @                                                             X 2 ~ ' ' ' ' ^ 4 . 1 I I I I I I I I ",
"I I I I I H Z . 2 t p ~ ~ ~ p 6 =   o N R R R B c c c s + h @                                                             X 2 p F ~ ~ G F 2 O e I I I I I I I I ",
"I I I I I I Z . , 5 6 6 6 6 2 2 =   . N R R R B c c c f + h @                                                               X 2 2 6 6 6 2 2 X 1 H I I I I I I I ",
"I I I I I I Z . ; 2 2 2 2 2 2 = .   + N R R R B c c c s + h @                                                                 ; 2 2 2 2 2 2 X 1 I I I I I I I I ",
"I I I I H ..D Z , = = = X = X       . J R R R B c c c s + h @                                                                 X X = = = = - 8 S I { I I I I I I ",
"I I I I H H D Z , X X = = = =       . J R R R B c c c s + h @                                                                 X - X = X = - 5 S I H H { I I I I ",
"I I I I I I Z . ; 6 t u u A t =     . J R R R B c c c s + h @                                                               X 2 u u u u 7 4 X 1 I I I I I I I I ",
"I I I I I { Z . ; ' 9.q.9.9.8.F =   . n R R R B c c c s + h @                                                               4 O.q.9.q.q.=.7 X 1 I I I I I I I I ",
"I I I I I I S . ; ) =.;.:.:.%.F ;   . K R R R B c c c s + h @                                                             X 6 O.;.;.;.:.O.7 X 1 I I I I I I I I ",
"I I I I I I Z . ; F ' ' ' ' _ t -   . N R R R B c c c f + h @                                                             X 2 ^ [ ' ' ' ^ 4 X < ` I I I I I I I ",
"I I I I I I Z X ; p ' ' ' ' ( u ;   . N R R R B c c c s + h @                                                             X 6 ^ ' ' ' ' ( 2 X 1 I I I I I I I I ",
"I I I I I I Z . ; p ( ' ' ' ( u -   + N R R R B c c c s + h @                                                               6 ~ ' ' ' ' ~ 6 X 1 I I I I I I I I ",
"I I I I I I Z . ; p ( [ ' ' ( u =     k M M M h s f x s + h @                                                             X 2 ^ ' ' ' ' ( 4 X 1 I I I I I I I I ",
"I I I I I I Z . ; p ( ' ' ' ' u -     o = o o =   + g a + h @                                                             X 6 ~ ' ' ' ' ( 2 X : P P P I I I I I ",
"I I I I I I e o 2 p ( ' ' ' ^ u - . o q C C C C * O # . + g @                                                             = 6 ~ ' ( ' ' ^ 4 o , 1 0 Z I I I I I ",
"I I I I I I e o ; r u u u p u 6 - = q +.t.t.t.t.@.d o   + g @                                                               2 t u p u p u 2 X O 1 1 1 Z P I I I ",
"I I I I I I u X = 6 6 6 6 2 6 2 o - W 3.y.y.y.y.5.Q 3 O + g                                                                 ; 2 6 6 6 6 2 2 o & 1 1 1 1 Z P I I ",
"I I I I I I e   2 2 2 2 2 2 2 X   - W #.4.6.6.6.*.! W 3 + a                                                                   - 2 2 2 2 2 ; . : 1 9 1 1 Z P I I ",
"I I I I I I I Z ; X X X X = X X   - V #.2.2.6.2.*.! W 3 + h @                                                                 X X X X X X X ; ; 1 1 9 1 P P I I ",
"I I I I I I S 1 ; ; ; - - ; = X   = V | #.2.6.6.*.! W 3 + h @                                                               X X ; ; = ; ; ; X ; 1 1 1 1 C P I I ",
"I I I I H { Z . ; A _ _ ` ` ) 2 X - V W | #.#.#.X.W y > + h @                                                               X A ` ` ` ` G 5 X - 1 1 1 1 1 P I I ",
"I I I I ) H Z . ; ..e.r.r.r.w.) ; - V W W W W W Q i -   + h @                                                               7 :.r.r.r.r.8.A X - 9 1 1 1 Z P I I ",
"I I I I I I Z O ; ^ %.&.=.=.$.F - X > y E W W W y > o   + h @                                                             X 4 ] =.=.=.=.] 4 X O 1 1 1 1 Z P I I ",
"I I I I I I Z . ; p ' ' ' ` ( t -     ; 3 3 3 3 > . a + + h @                                                             X 6 ) ' ' ' ' ) 5 X O 1 1 1 1 Z P I I ",
"I I I I I I Z . ; t ~ ^ ^ ^ ~ 7 =     * d d d $ @ a h f + h @                                                             X ; A ^ ^ ^ ^ F 4 X O 1 1 1 1 Z D P I ",
"I I I I I H Z . ; 6 r r r t 7 -     . M Y U Y n x x c f + h @                                                               X ; r r 7 7 7 4 X - 1 1 1 1 Z D ..H ",
"I I I I I I D Z , O O - = = =       + J R R R B c c c s   @ +                                                                 X = = = - = - - , 1 1 8 1 e P { H ",
"I I I I I I D Z , X - X = = X X     + J R R R m c x h a                                                                       X = = = = X - , , 1 8 1 8 e P H { ",
"I I I I I I Z O ; 6 A A F A 7 =     . J R R R L c g +                                                                       X < t G F u 6 2 O O 1 8 1 8 e P I I ",
"I I I I I D Z . ; u ` 8.q.;.^ 7 -   + J R R R m h @                                                                       X 2 G O.q.q.$.G 4 X O 1 1 8 1 e I I I ",
"I I I I I D , . ; t / O.%.] G < X     k z z z k a                                                                           < 5 _ $.%.` A 2 X   : 1 1 e D I I I ",
"I I I I S ,     = ; ; < ; ; - X                                                                                               O ; ; ; ; ; - X   . , 9 I I I I I ",
"I I I H 1 O .   X   X . X O   . X   . .   . . . . . . X . o   X   . . . O       X         . .       .   . .           . X .   . X X . X X   .   . O Z I I I I I ",
"{ I I I Z Z Z Z A Z A Z A Z Z Z Z e Z Z Z Z Z 0 Z Z e e e e 0 q Z Z Z Z Z Z Z Z Z Z Z Z Z Z Z Z , , Z e Z Z Z Z Z Z Z Z Z Z Z Z A Z Z Z A Z Z Z e Z D I I I I I "
};
