/* XPM */
static char *result[] = {
/* columns rows colors chars-per-pixel */
"80 80 153 2 ",
"   c #252242",
".  c #292443",
"X  c #27264B",
"o  c #2A264B",
"O  c #2B294D",
"+  c #332442",
"@  c #3A2543",
"#  c #362945",
"$  c #3C2A46",
"%  c #33274B",
"&  c #32284B",
"*  c #282750",
"=  c #2A2A54",
"-  c #2A2C5B",
";  c #302F56",
":  c #322C5D",
">  c #2F3056",
",  c #2E315A",
"<  c #34355E",
"1  c #2B2E63",
"2  c #352E65",
"3  c #2C3166",
"4  c #2F3866",
"5  c #2D326A",
"6  c #2F386B",
"7  c #353660",
"8  c #363A64",
"9  c #383B67",
"0  c #373169",
"q  c #39326D",
"w  c #313B6D",
"e  c #393F6A",
"r  c #2F3771",
"t  c #2F3871",
"y  c #3B3374",
"u  c #313B74",
"i  c #3F367C",
"p  c #333F7A",
"a  c #452642",
"s  c #4B2743",
"d  c #4B2944",
"f  c #512743",
"g  c #542843",
"h  c #5B2944",
"j  c #532F48",
"k  c #5C2F48",
"l  c #4D324B",
"z  c #543049",
"x  c #5B354C",
"c  c #5C394F",
"v  c #5D3950",
"b  c #642C45",
"n  c #6B2C45",
"m  c #702F47",
"M  c #6E3047",
"N  c #633249",
"B  c #6E344B",
"V  c #713047",
"C  c #75344B",
"Z  c #79374C",
"A  c #7C3A4E",
"S  c #603B50",
"D  c #6E3E52",
"F  c #723E52",
"G  c #7F3D50",
"H  c #40377F",
"J  c #41397C",
"K  c #3A406D",
"L  c #334275",
"P  c #3E4574",
"I  c #3F4877",
"U  c #34427B",
"Y  c #36487F",
"T  c #3F4878",
"R  c #724254",
"E  c #404877",
"W  c #424C7D",
"Q  c #813E51",
"!  c #844254",
"~  c #894656",
"^  c #8C4857",
"/  c #8B4758",
"(  c #8D4A59",
")  c #924E5C",
"_  c #96515E",
"`  c #413781",
"'  c #433985",
"]  c #463D89",
"[  c #483F8B",
"{  c #364582",
"}  c #374985",
"|  c #384C85",
" . c #394D8B",
".. c #395186",
"X. c #3B548D",
"o. c #3C588D",
"O. c #3C5393",
"+. c #3E5B94",
"@. c #3F5B99",
"#. c #474282",
"$. c #49418D",
"%. c #4F4C8F",
"&. c #50478F",
"*. c #4D4792",
"=. c #4D4992",
"-. c #534A91",
";. c #534F98",
":. c #405D9C",
">. c #55529A",
",. c #59559C",
"<. c #59589F",
"1. c #645E9E",
"2. c #41639D",
"3. c #5C5BA2",
"4. c #4264A2",
"5. c #446BA5",
"6. c #466EAB",
"7. c #5F60A6",
"8. c #4770AD",
"9. c #4874AE",
"0. c #4976B4",
"q. c #4B7BB5",
"w. c #4C7DB9",
"e. c #6563A5",
"r. c #6F68A1",
"t. c #6263A9",
"y. c #676AAF",
"u. c #6C6BAB",
"i. c #7773AB",
"p. c #7E79AE",
"a. c #696DB1",
"s. c #6D70B2",
"d. c #7476B3",
"f. c #7678B5",
"g. c #817CAF",
"h. c #827FB3",
"j. c #4D81BC",
"k. c #4F85C1",
"l. c #5087C3",
"z. c #5089C4",
"x. c #5493CD",
"c. c #5698D2",
"v. c #589AD5",
"b. c #5BA2DD",
"n. c #8A84B1",
"m. c #8C88B6",
"M. c #8F8DBC",
"N. c #9392BE",
"B. c #9893BB",
"V. c #9797C0",
"C. c #9F9CC2",
"Z. c #AAA5C5",
"A. c #ADA9C7",
/* pixels */
"W W W W W W W W W W I T W W W W W W W W W W W W W W W W T %.T T T T T T T T ..W W W W W W W W W W W W W W W W W W W W W W W #.W W W W W W W W W W W W W W W W W ",
"W W W W W W W W W W %.T W W W W W W W W W W W W W W W W T T I I I T P I T I I I I P P P P P P I W W W W W W W W W W W W W W W W W W W W W W W W W W W W W W W W ",
"W W W W W W W W W W W #.W W W W W W T #.W W W W W W W W T I < = > O > O O > > O = O O = O O > O K I W W W W W W W W W W W W W W W W W W W W W W W W W W W W W W ",
"W W W W W W W W W W W W W W W W W W ..W W W W W I K W E K < - * = = = O O = . . X = = * = = = = < K K I K K W W W W W W W W W W W W W W W W #.W W W W W W W W W ",
"W W W W W W W W W W W W W W W W W W W W W T P I K O K <   * 6 L U U U U L 6 * X 1 u U U U p p p = X - K > > K L P P I P T P I I E E E E E P E P W W W W W W W W ",
"W W W W W W W W W W W W W W W W W W W T T K > = > > O - 1 6 5.z.k.z.k.z.j.Y =   5 5.k.z.z.z.z.l.} , - X - - O X > 8 < < K 8 < K 7 8 7 7 8 8 7 8 9 P W W W W W W ",
"W W W W #.W W W W W W W W W W W W W T 8 > > - - - 1 X * 5 t @.8.8.8.8.8.5.L = X 5 @.8.0.8.8.8.6.Y 3 -   = 1 - - = O O < < < < < 7 < < 7 7 7 7 7 < 9 E W W W W W ",
"W W W W W W W W W W W W W W W W T I K , = , ..O...3 * = - 6 } O.O.O.O.O.O.t = X 5 } O.O.O.O.O.O.t 1 - X - U o.o.w O O > > < < < < < 7 : 7 < 7 7 < < 9 W W W W W ",
"W W W W W W W W W W W W W W W W W e O 4 t ..z.v.w.{ 5 = X 1 { O.O.O.O.O.O.t = X 1 } O.O.O.O. . .r = * 1 r 4.x.c.2.L 6 = O < < < < < < < < < l w < < < W W W W W ",
"W W W W W W W W W W W W W W I W 9 , 6 2.z.j.5.4.6.9.p - X 1 r p O.O.O.O. .t = X 1 { O.O.O.O.} r 5 = * 1 4.w.4.4.0.z.q.} , = < < < < < < 8 < < 7 < < K W W W W W ",
"W W W W W W W W o.W W W I K 8 < , w 5.0.q.8.@.O.@.4.p 1 = = - w p p p p p 5 * X 1 u p p p p u 5 - = 1 1 +.5.O.O.5.0.q.0...- O O ; < < < < < < < < < K W W W W #.",
"W W W W W W W W W W W W I 8 O O 4 @.k.5.O.O.O.O.O. .r 1 1 X - 1 5 5 5 5 1 1 *   - 1 5 5 5 5 5 1 * = 1 5 { O.O.O.O.O.@.w.9.L O O = ; < < < < 7 < < < K W W W W W ",
"%.T W W W W W W W W I I 8 O , 1 O.w.4.O.O.O.O.O.O. .r 5 - .   * 1 1 1 1 1 X     X - 1 1 1 1 1 1 X = 1 1 p O.O.O.O.O.O.@.9.8.6 - - O < < < < 8 < < < K W W W W W ",
"I T W W W W W W W T I > > > X 1 p } O.O.O.O.O.O. .u 5 -         X X X X X         X X   X X o o   X = 1 r { O.O.O.O.O.O.X.Y 5 - = = O = < < < < < < 8 W W W W W ",
"W W W W W W W W W W L O = 1 = = 1 r p  .O.O.O.} p 5 - X                                             X = 1 r { O.O.O.O.{ t 3 - * - - . ; < 8 < < < < 8 W W W W W ",
"W W W W W W W W W I L X 4 U L - = 1 5 {  . . .p 1 - X       . +     . .               + + . + .         = 1 r {  .O.} r 5 - X 4 U u O & < < < < < < 8 W W W W W ",
"W W W W W W W W I K O - 2.z.j.} - * 1 5 t t t 5 = .       . s h h h h f +           a b h h b h +         = 2 5 r r r 5 - = 5 5.k.0.6 - o < < < < < 9 W W W W W ",
":.W W W W W W W Y K O , X.9.8.q.o.- * 1 5 3 3 - .         + h n n n n n s +       a h n n n n n @           = 1 5 5 1 = * p 9.8.9.2.r =   < < < < < 9 W W W W W ",
"E W W W W W W W L , 1 X.+.O.@.0.9...= = = - - X           a h m Z Z V n h +       h n n Z Z C n s +           o = - = = t 5.w.4.O.+.@.t = = < < 7 < 9 W W W W W ",
"W W W W W W W W , = U z.0.O.O.O.0.j.6 *                 + h m A ) ) Z n n +       h n Z ^ ) ~ V n a                 X - 2.k.:.O.O.2.c.2.- o < < < < 9 E W W W W ",
"W W W W W W W W - * t @.@.O.O.O.:.+.5 X         + s +   + b Q ( _ _ ^ Q n +     + h V ~ ) _ ) ^ m a     a a           1 } :.O.O.O.O.4.} - O > < 7 7 8 E W W W W ",
"W W W W W W P 7 - 1 5 p } O.O.O. .u 5 X       . g h +   + b ~ _ _ _ _ ^ n +       f A ) _ _ _ _ C a     f h a +     X - r { O.O.O. .{ r 1 - O > 7 e E W W W W #.",
"W W W W W W K . - 1 5 5 p } } } p 1 - X     + g n b +   + N ~ _ _ _ _ ^ n +     + h A ) _ _ _ _ C s     f n b a       = 1 r { } { { 5 5 3 1 X > e E E W W W W W ",
"W W W W W W K . - 5 1 5 5 5 5 5 5 -       + b n n h +   + b ~ _ _ _ _ ^ n +       h G ) _ _ _ _ C s     f n n n a       * 5 5 5 5 5 5 5 1 1 X > E E W W W W W W ",
"W W W W W W I K > O = = - 1 5 1 - X     @ g n n n b +   + N ~ _ _ _ _ ^ n @       g Z ) ) _ _ _ C a     f n n n h a .     * 1 1 1 1 * * * - 4 K W W W W W W W W ",
"W W W W W W I e > O X = * - - * X       @ n Q m n b +   + b ~ _ _ _ _ ^ n @     + g Q ) _ _ _ _ C a +   f n m A C f .       = = = - = * X - < K W W W W W W W W ",
"W W W W W W K . - 1 3 3 - X X X       + s m ( Q m h +   + N ~ _ _ _ _ ^ n +     + g Q _ _ _ _ ) Z a     f m A ( A h @         o X = 1 3 5 1 X 4 W W W W W W W W ",
"W W W W W I K O - 5 5 3 1 1 - X       s n Z ) ) Q b +   + n ~ _ _ _ _ ^ n +     . g Q ) _ _ _ _ Z a     f A ) _ Q n h +       = 1 1 3 3 1 1 X - W W W W W W W W ",
"W W W W W W K . - ..6.9.9.@.t - X   . f C Q _ _ ^ n +   + b ~ _ _ _ ) ^ n +     . g Q ) _ _ _ _ C a .   g G ) _ ~ A b @     - 1 } 6.9.0.2., O > W W W W W W W W ",
"W W W W W W K . - X.j.k.k.q.+.t =   . f Q _ _ _ ~ n +   + n ~ _ _ _ _ ^ n +     . g Z ) _ _ _ _ Z a     g A ) _ _ ! b @   X 3 } 5.k.k.k.9.L X < W W W W W W W W ",
"W W W W W W I O - U O.@.@.5.w.} =     f Z ) _ _ ~ N +   . N ^ _ _ _ ) ^ n +     . h A _ _ _ _ _ V s     g A ) _ _ ~ b @   X 6 5.q.:.@.@...3 O < W W W W W W W W ",
"W W W W W W K . - L X.O.O.@.:.U =     f Q ( _ _ ~ n +   + b ~ _ _ _ ) ! n +     . g A _ _ _ _ _ C s .   g Q ) _ _ ~ b @   X 5 X.2.O.O.o.| 3 O 8 W W W W W W W W ",
"W W W W W W K . 1 p  .O.O.O. .u *     @ N R _ ~ V s     . s B ! _ ) ~ B s +       a b Q ) _ ( Q k +     @ b Q ) / B s .   o 1 } O.O.O.O.} 3 X < T W W W W W W W ",
"W W W W W W K o - p O.O.O.O.X.u =       @ h R N s .       . s N R G N s .           @ g D F B f +         @ k D N a       o 1 { O.O.O.O.} 3 X , W W W W W W W W ",
"W W W W W W K . - u  . . . .} t =     o o % % % o .   o X o o % # # & o X X         o + % % % o   o   o   o % % & o . .   X 5 { O.O. .O.{ 5 X 4 W W W W o.W W W ",
"W W W W W W K o - r u p u p t 5 -   . : q 0 y y y y y q y y y y K 8 q q q q y y y y y H y y y y y q y y q y q y y y 0 *   o 1 t t u u u t 1 X , W W W W W W W W ",
"W W W W W W K o - 1 5 1 5 5 5 - X o : ] ;.;.;.;.;.;.;.;.;.;.;.;.;.;.;.;.;.;.;.;.;.;.;.;.,.1.1.;.1.r.r.r.r.r.r.,.;.>.=.y * X - - 5 5 5 5 3 - X , W W W W W #.W W ",
"W W W W W W K > = 1 1 1 - - - X   = J ,.y.y.y.y.y.y.y.y.y.y.y.y.y.y.y.a.y.y.y.y.y.y.y.y.a.h.V.y.N.Z.Z.Z.C.Z.B.d.y.a.t.*.2     = - - - - - , = K W W W W %.T W W ",
"W W W W W W T T -         X X     ; ` 3.a.a.a.a.a.a.a.a.a.a.a.a.a.a.a.a.a.a.a.a.a.a.a.a.s.V.V.y.B.A.A.A.A.A.C.f.a.a.t.=.2         X     X * K P W W W W I W W W ",
"W W W W W | P , - - - - - = =     = ` 3.a.a.a.a.a.a.a.a.a.a.a.a.a.a.a.a.a.a.a.a.a.a.a.y.y.V.V.s.V.A.A.A.A.A.C.f.a.a.t.*.2 X   * - - - - - - > L W W W W T T W W ",
"W W W W W W K O - p X.O.+.O...3 . = ` ;.7.y.a.a.s.a.a.a.a.a.a.a.a.a.a.a.a.a.a.a.a.a.a.a.s.V.V.s.V.A.A.A.A.A.C.f.a.y.3.$.2 X * U O.O.o.O...5 X , W W W W W W W W ",
"W W W W W W K . - O.k.k.z.z.w.{ = = ` ' -.t.t.t.t.t.t.t.t.t.t.t.t.t.t.t.t.t.t.t.t.t.t.t.y.h.g.t.h.B.B.B.B.B.M.u.7.,.$.' 2 * 3 5.z.z.z.z.8.t   K W W W W W W W I ",
"W W W W W W K . - p :.4.2.4.@.p = : H ' ] [ [ [ [ [ [ [ [ [ [ [ $.[ $.$.[ [ [ [ [ [ [ [ [ [ [ [ -.-.-.-.-.-.&.[ $.[ ' ' 2 * 3 ..:.4.4.4.X.5 X , W W W W W W T %.",
"W W W W W T K O 1 p O.O.O.O. .t = * 2 y ' ' ' ] ' ' ' ' ] ' ' ] ' ' ' ' ' ' ' ' ] ' ] ] ] ] [ ' ' ] ' ' ' ' ' ' ' ' ` q = X 5 { O.O.O.O.} 1 X , W W W W W W #.W ",
"W W W W W W K . - p  .O.O.O. .u =     2 i y y i y y y y y y y y y y y i y y y y y i y y y y y y J y y y y y y y y y y o   X 3 { O.O.O.O..., O < W W W W W W W W ",
"W W W W W W K O - p  .O.O.O. .u =       o % % % % o o o o o % # % % % % o o o o X X % % % % % % + o o o o % % % % % o     X 5 } O.O.O.O.} L   > W W W W W W W W ",
"W W T :.%.T K X - p O.O.O.O. .u =       @ f h h s         . a h h h h s             @ h h h h h @         @ g h h s       X 1 } X.O.O.X.} 3 X 4 W W W W W W W W ",
"W W T T I T K . 1 t p { { { H 5 -     @ f n n n n a .     a b n n n n b a .       @ f n n n n n f +     @ g n n n h a .   o 1 p { { { { U , O 8 W W W W W W W W ",
"W W W W W W P O > , 5 3 3 3 3 1 o   . f n n Z m n b +   + h n n m m n n n +     . g n m m m m n n a     f n n m m n h @     - 1 5 5 5 5 5 1 X < W W W W W W W W ",
"W W W W W W K O - 4 3 3 1 1 1 =     . f n Z Q Q m b +   + b n A ^ ~ Q m b +     + g n V ~ ) Q C n a     f m C ~ Q m b @     o - 1 1 1 1 1 - X 8 W W W W W W W W ",
"W W W W W W I e , X X X * X X         g V Q _ ( Q b +   + b Q ( _ _ ^ Q n +       h C ~ ) _ ) ! n s     f C ~ _ ^ Q n +         X * * X X = 7 L W W W W W W W W ",
"W W W W I I I K , X * * * * X       . g Q ) _ _ Q n +   + b ~ ) _ _ _ Q n +     . f Q _ _ _ _ _ V s     g Q ) _ ) ~ n +       X * * * * * = 7 P W W W W W W W W ",
"W W W W W W K O - 5 u t t t t =     . g A ) _ _ ~ n +   + b ~ _ _ _ _ ^ n +     . h Z ) _ _ _ _ Z a .   g Q ) _ _ ~ b @       5 u u u u t 3 X < W W W W W W W W ",
"W W W W W W K . - X.k.k.z.z.j.U *   . f A ) _ _ ~ b +   + n ~ _ _ _ _ ^ n +     + f Q ) _ _ _ _ Z s     g Z ) _ _ ~ b @     1 4.z.k.z.l.8.6   < W W W W W W W W ",
"W W W W W W K O -  .0.0.q.q.5.U =     g Z ) _ _ ~ N +   . N ^ _ _ _ _ ^ n +       h Z _ _ _ _ ) C a     g Z ) _ _ ~ b @   X 5 :.0.0.0.q.2.6 X < W W W W W W W #.",
"W W W W W W K . - L O.O.O.O. .u =   . f Q ) _ _ ~ n +   + b ~ _ _ _ _ ^ n +     . f Q _ _ _ _ _ C s     g Q ) _ _ ! b @   o 1 } @.O.O.O.| 3 X , W W W W W W W W ",
"W W W W W ..K . - U O.O.O.O. .t =     s C ) _ _ ! b +   . b ! ) _ _ ) ~ b +     . g Z ) ) _ ) ) V a     s G ) ) ) ! b @   X 3 { O.O.O.O.} 5 X < W W W W W W W W ",
"W W W W W T K . - p  .O.O.O. .u *     + d Z _ Q N @       @ N G _ ) Q N @ +       + g Z ) _ / Z d +     + d A ) ! N @     X 3 { O.O.O.O.} 1 X < W W W W W W W W ",
"W W W W W W K . - p O.O.O.O. .u -       + j v j a .       + a j N S j a             + s x S x s +         + g v z a       X 5 { O.O.O.O.} 5 X < W W W W W W W W ",
"W W W W W W K . - p O.O.O.O. .u *     X X o o * o o o o o o o o & O o o o o X   o o o o o o * o X X o o X X o o o o o     X 1 } O.O.O.O.} 5 X ; E E E W W W W W ",
"W W W W W W K O - p  .O.O. . .t -   . 0 J i J J J J J J J J J J J J J J J J J J J J J J J J J J J J J J E ` J J i J y :   X 3 { O.O.O.O.} 3 O > 8 9 J E W W W W ",
"W W W W W W K O - r u t p p u r - O q %.3.3.3.3.<.3.3.<.3.3.3.3.3.3.3.3.3.3.3.3.3.3.3.3.3.i.i.7.p.n.n.m.n.n.h.e.3.3.,.J : X 1 t t p r p u 3   = < < < K E W W W ",
"W W W W Y W w X - 5 5 5 5 1 5 1 O = ` <.y.a.y.y.s.y.y.y.a.a.y.a.y.y.a.a.y.a.y.y.a.y.a.y.s.N.N.a.B.A.A.A.Z.Z.B.f.y.a.t.=.2 o - 1 5 5 5 5 3 1 . & < < < < K E W W ",
"W W W W #.T e X - 1 1 1 1 1 1 X . = ` 3.a.a.a.a.a.a.a.s.a.a.a.a.a.y.a.a.a.a.a.a.a.a.a.a.s.N.V.a.V.A.A.A.A.A.Z.f.a.a.t.*.2     - 1 5 1 1 1 - O ; < < < < K E W W ",
"W W W W W W W P - X X X X X X     = ' 3.y.a.a.a.a.a.a.a.a.a.a.a.a.a.a.a.a.a.a.a.a.a.a.a.u.V.V.a.V.A.A.A.A.A.C.g.a.a.t.*.2     X X X X X X * = < < 7 < < J E W W ",
"W W W #.W W P 7 - - = - = - =     = H =.3.y.a.a.a.a.a.a.a.a.a.a.a.a.a.a.a.a.a.a.a.a.a.a.a.V.V.y.V.A.A.A.A.A.C.f.a.t.;.[ 2 X   * = - - = - = O > 7 < 7 < 9 E W W ",
"W W W W W T K . - L X.O.o.o. .3   - i ' *.3.3.3.3.3.3.3.3.3.3.3.3.3.3.3.3.3.3.3.3.3.3.3.7.i.i.7.p.h.n.h.n.h.h.e.3.>.] ' 2 X * L O.o.o.O.| 3 X O 7 < 7 < 9 E W W ",
"W W W W W I K O - 2.c.b.b.b.x...- - H ' ' ' ' ' ] ' ] ' ] ] ] ] ' ' ] ' [ ' ' [ ] ] ' ] ' ] ] ' ] ] [ [ [ ] ] ] ] ' ' ` 2 * 6 0.b.b.b.b.j.6 O O < 7 < < K E W W ",
"W W W W W W P O - } 5.6.8.8.5.U =   - y ' ' ' ' ' ' ` ' ' ` ' ' ' ' ` ' ' ' J J ' ' ' ' ' ` ' ' ' ` ' ` ' ' ' ' ` ` i 2 X X 5 +.8.8.8.6.2.6 X O 7 < < 7 K T W W ",
"W W W W W W K   - p O.O.O.O. .t -   . = 2 2 2 2 2 2 2 2 2 2 2 2 2 2 2 2 2 2 2 ; 2 2 2 2 2 2 2 2 2 2 2 2 2 2 2 2 2 2 2 o   X 1 } O.O.O.O.} 3 o O < 7 7 < 9 I W W ",
"W W W W W T K O - t } } } } } 4 *       . + @ @ + .   o     o @ + @ @ + . .       X . + @ + @ + +     .   . @ @ # %       X 3 L  .}  .{ Y 3 X O 7 < < < K I W W ",
"W W W W W I K   - 5 r 5 r r 5 *         a h b b f .       . s b b b b f +           @ b b b b b @         @ b n b s           1 5 r 5 6 5 1 o = < < < 8 9 T W W ",
"W W W W W W I e > O = = * * * X       a h n n n n s .   . s h n n n n n s +       a h n n n n n f @     @ h n n n b s +       X = * * = * = = > < < < < K I W W ",
"W W W W W W I K > O = X * X *         g n m R V n b +   + b n m A Z V n b +     . g n M Z R C n n a     g n m Z V n b @         * * * * * * > < < < 7 < K I W W ",
"W W W W W W K O - 5 L L Y L 6 *       s n C ( ! n h %   + h m Q ) ) R R h +     . s n Z ^ ) ~ B b a     a b C ^ ! M g +     X , t Y U u 3 , O O 7 < < 7 K I W W ",
"W W W W I I K O - L o.q.z.0.| 6 .     + j ~ _ ) Z @       @ Z ^ _ _ ^ R @         + k ^ ) _ ) ^ s +     + c ^ _ ( C @     X 1 U 2.z.z.4.Y 3 X O < 7 < < K W W W ",
"W W W W W I >   - t | 2.5.+.L , .       # c c c l         . l x c c c l             @ x S S c c @         $ c c c l .       = 6 X.4.5.X.t 3 X X ; < 7 9 E W W W ",
"W W W W P >     * - - - - - > X                                     .                                                         = - - , = - -     . ; 9 E W #.W W ",
"W W W W < O . . X   X X X X . X X   . .   X X . . . . . .   . o   . . . . . .   . . . .     X     X X o     X . .   X   .   .   X X X X X X X   . = K W W W W W ",
"W W W W K K K K L K K K L K K K K K K K K K K K K K K K K K K K K K K K K K K K K e e K e e K K e e 9 9 K K K K K K K K K K K K K K K K K K K K e e E W W W W W "
};
