/* XPM */
static char *result[] = {
/* columns rows colors chars-per-pixel */
"80 80 189 2 ",
"   c #020401",
".  c #050A02",
"X  c #090D04",
"o  c #050709",
"O  c #070E08",
"+  c #080B0C",
"@  c #071304",
"#  c #0C1406",
"$  c #0E1708",
"%  c #0C1C0A",
"&  c #121D0A",
"*  c #0C0F14",
"=  c #0D1114",
"-  c #0E111B",
";  c #111617",
":  c #121B11",
">  c #11141C",
",  c #131C1B",
"<  c #0E250C",
"1  c #16230D",
"2  c #18270E",
"3  c #10280E",
"4  c #162112",
"5  c #122C12",
"6  c #1B2B11",
"7  c #18271C",
"8  c #153414",
"9  c #1E3115",
"0  c #18361B",
"q  c #193D1A",
"w  c #213617",
"e  c #21351B",
"r  c #253C1B",
"t  c #161925",
"y  c #181D2B",
"u  c #182224",
"i  c #182B21",
"p  c #1E2A2F",
"a  c #1D3726",
"s  c #1E2434",
"d  c #1F2439",
"f  c #202F28",
"g  c #25372B",
"h  c #202537",
"j  c #212837",
"k  c #242B3B",
"l  c #213331",
"z  c #28373B",
"x  c #1B421C",
"c  c #27401D",
"v  c #29431F",
"b  c #1F4821",
"n  c #2A4424",
"m  c #2D4B24",
"M  c #224A28",
"N  c #2E4B2B",
"B  c #25542B",
"V  c #305026",
"C  c #335629",
"Z  c #375C2D",
"A  c #2C4037",
"S  c #2C4933",
"D  c #27423A",
"F  c #2E423D",
"G  c #2B4C3D",
"H  c #324C3B",
"J  c #2C5E33",
"K  c #365736",
"L  c #365C30",
"P  c #36533E",
"I  c #2D6233",
"U  c #3B6432",
"Y  c #386A36",
"T  c #326B3C",
"R  c #35723E",
"E  c #426E38",
"W  c #43723A",
"Q  c #477B3E",
"!  c #272944",
"~  c #252A44",
"^  c #2A2C4B",
"/  c #2C3C44",
"(  c #2C344B",
")  c #313B47",
"_  c #30364B",
"`  c #323C4D",
"'  c #2E2F52",
"]  c #2E3152",
"[  c #2E3A53",
"{  c #303254",
"}  c #323C54",
"|  c #35355F",
" . c #333D5C",
".. c #353660",
"X. c #373964",
"o. c #383A66",
"O. c #393D6A",
"+. c #2C4544",
"@. c #334743",
"#. c #33434C",
"$. c #2E5141",
"%. c #395448",
"&. c #394751",
"*. c #344D52",
"=. c #384855",
"-. c #33405A",
";. c #3A4B5B",
":. c #3D5959",
">. c #396644",
",. c #3A7745",
"<. c #3E7250",
"1. c #364064",
"2. c #394464",
"3. c #3C4B63",
"4. c #374168",
"5. c #3B426E",
"6. c #3D4A68",
"7. c #3E4573",
"8. c #3F4877",
"9. c #3F4978",
"0. c #425A4F",
"q. c #445C52",
"w. c #425857",
"e. c #436844",
"r. c #4A7C42",
"t. c #4A7A48",
"y. c #496757",
"u. c #4A725E",
"i. c #54745F",
"p. c #567B5A",
"a. c #425565",
"s. c #404877",
"d. c #424C7D",
"f. c #4A6B62",
"g. c #577B66",
"h. c #3C8047",
"j. c #4E8545",
"k. c #558B4C",
"l. c #458053",
"z. c #468E52",
"x. c #548452",
"c. c #5A8F53",
"v. c #499456",
"b. c #4D9B5A",
"n. c #5B9B53",
"m. c #609958",
"M. c #4EA05E",
"N. c #64AB5C",
"B. c #588764",
"V. c #569461",
"C. c #628A69",
"Z. c #679A68",
"A. c #6A9870",
"S. c #55A863",
"D. c #57B267",
"F. c #68A666",
"G. c #6BB563",
"H. c #72B36B",
"J. c #71BD69",
"K. c #6EA070",
"L. c #70AE75",
"P. c #7AB276",
"I. c #79B975",
"U. c #69C474",
"Y. c #79CA78",
"T. c #82C77C",
"R. c #7CD480",
"E. c #7DD882",
"W. c #89C683",
"Q. c #89CA82",
"!. c #87D886",
"~. c #91D58B",
"^. c #92DB8A",
"/. c #93CA90",
"(. c #87E28A",
"). c #8DE58F",
"_. c #96E18E",
"`. c #9BE494",
"'. c #95E994",
"]. c #9EEE99",
"[. c #A0E598",
"{. c #A2EC9B",
"}. c #A5F39D",
"|. c #A8EFA0",
" X c #ABF3A3",
".X c #A7F8A2",
"XX c #ABFAA3",
"oX c #B1FAAA",
"OX c #C3FEBD",
/* pixels */
"d.d.d.d.d.d.d.d.d.d.d.d.d.d.d.d.d.d.d.d.d.d.d.d.d.d.d.d.d.d.d.d.d.d.d.d.d.d.d.d.d.d.d.d.d.d.d.d.d.d.d.d.d.d.d.d.d.d.d.d.d.d.d.d.d.d.d.d.d.d.d.d.d.d.d.d.d.d.d.d.",
"d.d.d.d.d.d.d.d.d.d.d.d.d.d.d.d.d.d.d.d.d.d.d.d.d.d.d.d.d.d.d.d.d.d.d.d.d.d.d.d.d.d.d.d.d.d.d.d.d.d.d.d.d.d.d.d.d.d.d.d.d.d.d.d.d.d.d.d.d.d.d.d.d.d.d.d.d.d.d.d.",
"d.d.d.d.d.d.d.d.d.d.d.d.d.d.d.d.d.d.d.d.d.d.d.d.d.d.d.d.d.d.d.d.d.d.d.d.d.d.d.d.d.d.d.d.d.d.d.d.d.d.d.d.d.d.d.d.d.d.d.d.d.d.d.d.d.d.d.d.d.d.d.d.d.d.d.d.d.d.d.d.",
"d.d.d.d.d.d.d.d.d.d.d.d.d.d.d.d.d.d.d.d.d.d.d.d.d.d.d.d.d.d.d.d.d.d.d.d.d.d.d.d.d.d.d.d.d.d.d.d.d.d.d.d.d.d.d.d.d.d.d.d.d.d.d.d.d.d.d.d.d.d.d.d.d.d.d.d.d.d.d.d.",
"d.d.d.d.d.d.d.d.d.d.d.d.d.d.d.d.d.d.d.d.d.d.d.d.d.d.d.d.d.d.d.d.d.d.d.d.d.d.d.d.s.O.d.s.O.9.O.9.s.s.7.9.7.s.9.7.9.9.s.s.s.s.s.9.7.s.s.s.s.s.7.s.s.d.d.d.d.d.d.d.",
"d.d.d.d.d.d.d.d.d.d.d.d.d.d.d.d.d.d.d.d.d.d.d.d.d.d.d.d.d.d.d.d.d.d.d.d.d.d.d.d.O.o.o.o.O.O.O.o.O...O...O...o.......o...O...o...o.....o.o...o...o.7.d.d.d.d.d.d.",
"d.d.d.d.d.d.d.d.d.d.d.d.d.d.d.d.d.d.d.d.d.d.d.d.d.d.d.d.d.d.d.d.d.d.d.d.d.d.d.9.o.| | | ..| | | | | | | | | | | ....| | | | | | | | | | ....| | ..O.7.d.d.d.d.d.",
"d.d.d.d.d.d.d.d.d.d.d.d.d.d.d.d.d.d.d.d.d.d.d.d.d.d.d.d.d.d.d.d.d.d.d.d.d.d.O.o.| | | | | | | | | | | | | | | | | | | | | | | | | | | | | | | | ....o.s.d.d.d.d.",
"d.d.d.d.d.d.d.d.d.d.d.d.d.d.d.d.d.d.d.d.d.d.d.d.d.d.d.d.d.d.d.d.d.d.d.d.d.s.O.| | | | | | | | | | | | | | | | | | | | | | | ..| | | | | | | | | | | O.s.d.d.d.d.",
"d.d.d.d.d.d.d.d.d.d.d.d.d.d.d.d.d.d.d.d.d.d.d.d.d.d.d.d.d.d.d.d.d.d.d.d.d.s.O.| | | | | | | | | | | | | | | | | | | | | | | | | | | | | | | | | | ..O.s.d.d.d.d.",
"d.d.d.d.d.d.d.d.d.d.d.d.d.d.d.d.d.d.d.d.d.d.d.d.d.d.d.d.d.d.d.d.d.d.d.d.d.9.o...| | | | | | | | | | | | ..| | | | | | | | | | | | | | | | | | | ..| O.s.d.d.d.d.",
"d.d.d.d.d.d.d.d.d.d.d.d.d.d.d.d.d.d.d.d.d.d.d.d.d.d.d.d.d.d.d.d.d.d.d.d.d.9.O...| | | | | | | | | | | | | | | | | | | | | | | | | | ..| | | | ..| | O.d.d.d.d.d.",
"d.d.d.d.d.d.d.d.d.d.d.d.d.d.d.d.d.d.d.d.d.d.d.d.d.d.d.d.d.d.d.d.d.d.d.d.d.9.o...| | | | | | | | | | | | | | | | | | | | | | | | | | | | | | | | | | o.s.d.d.d.d.",
"d.d.d.d.d.d.d.d.d.d.d.d.d.d.d.d.d.d.d.d.d.d.d.d.d.d.d.d.d.d.d.d.d.d.d.d.d.9.o.| | | | | | | | | | | | | | | | | | ..| | | | | | | | | | | | | | | | o.s.d.d.d.d.",
"d.d.d.d.d.d.d.d.d.d.d.d.d.d.d.d.d.d.d.d.d.d.d.d.d.d.d.d.d.d.d.d.d.d.d.d.d.9.O...| | | | | | | | | | | | | | | | | | | | | | | | | | | | ..| | | ....O.s.d.d.d.d.",
"d.d.d.d.d.d.d.d.d.d.d.d.d.d.d.d.d.d.d.d.d.d.d.d.d.d.d.d.d.d.d.d.d.d.d.d.d.d.O...| | | | | | | | | | | | | | | | | | | | | | | | | | | | | | | | | ..O.s.d.d.d.d.",
"d.d.d.d.d.d.d.d.d.d.d.d.d.d.d.d.d.d.d.d.d.d.d.d.d.d.d.d.d.d.d.d.d.d.d.d.d.s.o.| | | | | | | | | ..| | | | | | | | | | | ..| | | | | | | | | | | | | O.s.d.d.d.d.",
"d.d.d.d.d.d.d.d.d.d.d.d.d.d.d.d.d.d.d.d.d.d.d.d.d.d.d.d.d.d.d.d.d.d.d.d.d.s.O.| | | | | | | | | | | | | ..| | | | | | | | | | | | | | | | | | | | | O.s.d.d.d.d.",
"d.d.d.d.d.d.d.d.d.d.d.d.d.d.d.d.d.d.d.d.d.d.d.d.d.d.d.d.d.d.d.d.d.d.d.d.d.s.O...| | | | | | | | | | | | | | | | | | | | | | | | | | | | | | | | | | o.s.d.d.d.d.",
"d.d.d.d.d.d.d.d.d.d.d.d.d.d.d.d.d.d.d.d.d.d.d.d.d.d.d.d.d.d.d.d.d.d.d.d.d.s.O...| | | | | | | | | | | | | | | | | | | | | | | | | | | | | | | | | ..O.s.d.d.d.d.",
"d.d.d.d.d.d.d.d.d.d.d.d.d.d.d.d.d.d.d.d.d.d.d.d.d.d.d.d.d.d.d.d.d.d.d.d.d.s.O...| | | | | | | | | ..| | | | ..| | | ....| | | | | | | | ........| ..O.s.d.d.d.d.",
"d.d.d.d.d.d.d.d.d.d.d.d.d.d.d.d.d.d.d.d.d.d.d.d.d.d.d.d.d.d.d.d.d.d.d.d.d.s.7.O...| | | | | | | | | | | | | ....| | | ..| | ..| | | | | | ....o.| O.7.s.d.d.d.d.",
"d.d.d.d.d.d.d.d.d.d.d.d.d.d.d.d.d.d.d.d.d.d.d.d.d.d.d.d.d.d.d.d.d.d.d.d.d.d.d.7.o...o.....o...o.o...o...........................o...........s.O.o.7.d.d.d.d.d.d.",
"d.d.d.d.d.d.d.d.d.d.d.d.d.d.d.d.d.d.d.d.d.d.d.d.d.d.d.d.d.d.d.d.d.d.d.d.d.d.d.d.7.7.7.7.7.7.7.7.7.7.7.7.7.7.7.7.7.7.7.7.7.7.7.7.7.7.7.7.7.7.d.d.7.s.d.d.d.d.d.d.",
"d.d.d.d.d.d.d.d.d.d.d.d.d.d.d.d.d.d.d.d.d.d.d.d.d.d.d.d.d.d.d.d.d.d.d.d.d.d.d.d.d.d.d.d.d.d.d.d.d.d.d.d.d.d.d.d.d.d.d.d.d.d.d.d.d.d.d.d.d.d.d.d.d.d.d.d.d.d.d.d.",
"d.d.d.d.d.d.d.d.d.d.d.d.d.d.d.s.d.d.d.d.9.9.d.d.9.d.9.d.9.d.d.9.d.d.s.s.d.d.d.s.d.d.s.d.d.d.d.d.d.d.d.d.d.d.d.d.d.d.d.d.d.d.d.d.d.d.d.d.d.d.d.d.d.d.d.d.d.d.d.d.",
"d.d.d.d.d.d.d.d.d.d.d.d.d.7.7.O.O.7.7.7.7.O.O.5.O.5.7.7.5.5.5.O.7.7.O.7.O.7.7.7.5.5.5.O.O.5.s.d.d.d.d.d.d.d.d.d.d.d.d.d.d.d.d.d.d.d.d.d.d.d.d.d.d.d.d.d.d.d.d.d.",
"d.d.d.d.d.d.d.d.d.d.d.d.s.o...................................| | | ..| ..| ' | ......| ....O.d.d.d.d.d.d.d.d.d.d.d.d.d.d.d.d.d.d.d.d.d.d.d.d.d.d.d.d.d.d.d.d.d.",
"d.d.d.d.d.d.d.d.d.d.d.s.O.o.| | ....| | | | | | ....| | | | | | | | | | ' y.C.i.w.' | | | | o.O.s.d.d.d.d.d.d.d.d.d.d.d.d.d.d.d.d.d.d.d.d.d.d.d.d.d.d.d.d.d.d.d.",
"d.d.d.d.d.d.d.d.d.d.d.d.....| | | | | | | | | | | ..| | | | | | | | | ` P.}. X}.^.p.' | | | | ..7.d.d.d.d.d.d.d.d.d.d.d.d.d.d.d.d.d.d.d.d.d.d.d.d.d.d.d.d.d.d.d.",
"d.d.d.d.d.d.d.d.d.d.d.d.....| | | | | | | | | | | | ..| | | | | | | { C.oX X}.}. X}.g.' | | | ..7.d.d.d.d.d.s.s.s.a.7.d.d.d.d.d.d.d.d.d.d.d.d.d.d.d.d.d.d.d.d.d.",
"d.d.d.d.d.d.d.d.d.d.d.d.....| ..| | | | | ..| | | | | | | ..| | | | { W.OX{.{. X{.}.^.` | | | | 7.d.d.d.s.s.w.C.~./.g.7.d.d.d.d.d.d.d.d.d.d.d.d.d.d.d.d.d.d.d.d.",
"d.d.d.d.d.d.d.d.d.d.d.7...| | | | | | | | | | | | | | | | | | | | | ' P.oX{.{.{.{.{.`.0.| | | | s.d.d.d.d.5.A.XXXXXX|.f.9.d.d.d.d.d.d.d.d.d.d.d.d.d.d.d.d.d.d.d.",
"d.d.d.d.d.d.d.d.d.d.d.O...| | | | | | | | | | | | | | | | | | | | | | q.~.{.`.`.`.`._.y.| | | | s.s.d.d.d.6./.oX}. XoXC.8.d.d.d.d.d.d.d.d.d.d.d.d.d.d.d.d.d.d.d.",
"d.d.d.d.d.d.d.d.d.d.d.7.....| | | | | | | | | | | | | | | | | | | | | { 0.^.^.~.^.^.T.&.| | | | s.d.d.d.d.5.I..X].].].g.d.d.d.d.d.d.d.d.d.d.d.d.d.d.d.d.d.d.d.d.",
"d.d.d.d.d.d.d.d.d.d.d.7...| | | | | ..| | | | | | | | | | | | | | | | | { y.T.T.^.T.I.} | | | | 5.d.d.d.d.7.B.].'.'.!.a.d.d.d.d.d.d.d.d.d.d.d.d.d.d.d.d.d.d.d.d.",
"d.d.d.d.d.d.d.d.d.d.d.7...| | | | | | | ..| | | | | | | | | _ q.` { | | | _ p.T.T.Y.m.{ | | ....s.s.d.d.d.d.;.T.).(.L.5.d.d.d.d.d.d.d.d.d.d.d.d.d.d.d.d.d.d.d.d.",
"d.d.d.d.d.d.d.d.d.d.d.O...| | | | | | | | | | | | | | | ' 0.W.[.Q.0.| | | | ) H.J.J.c.{ | | | ..s.d.d.d.d.d.5.B.(.(.B.d.d.d.d.d.d.d.d.d.d.d.d.d.d.d.d.d.d.d.d.d.",
"d.d.d.d.d.d.d.d.d.d.d.7...| | | | | ..| | | | | | | | | { K. X{.}.W.{ | | | _ p.J.G.x.{ | | | ..O.d.d.d.d.d.s.y.!.(.f.d.d.d.d.d.d.d.d.d.d.d.d.d.d.d.d.d.d.d.d.d.",
"d.d.d.d.d.d.d.d.d.d.d.O.| | | | | | | | | | | | | | | | { K. X[.{.W.` | | | { e.G.N.x.' | | ....s.d.d.d.d.d.d.w.R.R.6.d.d.d.d.d.d.d.d.d.d.d.d.d.d.d.d.d.d.d.d.d.",
"d.d.d.d.d.d.d.d.d.d.d.7.| | | | | | | ..| | | | | | | | | i.`.[.[.p.' | | | | %.N.N.t.' | ..| ..8.d.d.d.d.d.d.:.R.Y.6.d.d.d.d.d.d.d.d.d.d.d.d.d.d.d.d.d.d.d.d.d.",
"d.d.d.d.d.d.d.d.d.d.d.7...| | | | | | | | | | | | | | | | w.~.[.P._ | | | | | H m.N.r.' | | | ..7.d.d.d.d.d.9.u.E.I.6.d.d.d.d.d.d.d.d.d.d.d.d.d.d.d.d.d.d.d.d.d.",
"d.d.d.d.d.d.d.d.d.d.d.7.o.| | | | | | | | | | | | | | | | ` T.~.y.{ | | | | | ) k.n.e.' | | | ..7.d.d.d.d.d.9.B.R.K.8.d.d.d.d.d.d.d.d.d.d.d.d.d.d.d.d.d.d.d.d.d.",
"d.d.d.d.d.d.d.d.d.d.d.s.7.o.| | | | | | | | | | | | | | | ` T.T.#.| | | | | | @.j.k.>.{ | ..X.s.9.d.d.d.d.d.6.V.U.V.8.9.d.d.d.d.d.d.d.d.d.d.d.d.d.d.d.d.d.d.d.d.",
"d.d.d.d.d.d.d.d.d.d.d.d.s.7.o.o.o.o.O.O.o.o.o.o.o.o.o.o.o.` Y.Z._ o.o.o.o.o.X.z j.j.P | o.O.s.s.d.d.d.d.d.d.3.S.U.u.d.d.d.d.d.d.d.d.d.d.d.d.d.d.d.d.d.d.d.d.d.d.",
"d.d.d.d.d.d.d.d.d.d.d.d.d.s.s.s.s.s.s.s.s.s.s.s.d.d.s.s.d.w.H.m.2.s.s.d.s.s.s.F Q Q @.s.s.s.d.d.d.d.d.d.d.9.:.D.D.:.d.d.d.d.d.d.d.d.d.d.d.d.d.d.d.d.d.d.d.d.d.d.",
"d.d.d.d.d.d.d.d.d.d.d.d.d.d.d.d.d.d.d.d.d.d.d.d.d.d.d.d.d.=.F.c.s.d.d.d.d.d.s.H Q E #.d.d.d.d.d.d.d.d.d.d.5.l.D.b.4.d.d.d.d.d.d.d.d.d.d.d.d.d.d.d.d.d.d.d.d.d.d.",
"d.d.d.d.d.d.d.d.d.d.d.d.d.d.d.d.d.d.d.d.d.d.d.d.d.d.d.d.d.=.m.c.=.s.d.d.d.d.O.K E U } d.d.d.d.d.d.d.d.d.9.*.M.S.<.8.d.d.d.d.d.d.d.d.d.d.d.d.d.d.d.d.d.d.d.d.d.d.",
"d.d.d.d.d.d.d.d.d.d.d.d.d.d.d.d.d.d.d.d.d.d.d.d.d.d.d.d.d.;.k.c.3.d.d.d.d.d.-.L Y L 4.d.d.d.d.d.d.d.d.d.5.>.M.M.*.9.d.d.d.d.d.d.d.d.d.d.d.d.d.d.d.d.d.d.d.d.d.d.",
"d.d.d.d.d.d.d.d.d.d.d.d.d.d.d.d.d.d.d.d.d.d.d.d.d.d.d.d.d.2.t.k.*.d.d.d.d.d.` L U S 7.d.d.d.d.d.d.d.d.d.*.z.M.<.2.d.d.d.d.d.d.d.d.d.d.d.d.d.d.d.d.d.d.d.d.d.d.d.",
"d.d.d.d.d.d.d.d.d.d.d.d.d.d.d.d.d.d.d.d.d.d.d.d.d.d.d.d.d.5.Y k.%.s.d.d.d.9.F L Z A 9.d.d.d.d.d.d.d.d.5.>.M.v.$.9.d.d.d.d.d.d.d.d.d.d.d.d.d.d.d.d.d.d.d.d.d.d.d.",
"d.d.d.d.d.d.d.d.d.d.d.d.d.d.d.d.d.d.d.d.d.d.d.d.d.d.d.d.s.s.%.r.e.3.d.d.9.7.N Z C / d.d.d.d.d.d.d.d.d.+.h.b.,.-.9.d.d.d.d.d.d.d.d.d.d.d.d.d.d.d.d.d.d.d.d.d.d.d.",
"d.d.d.d.d.d.d.d.d.d.d.d.d.d.d.d.d.d.d.d.d.d.d.d.d.d.d.d.d.d.#.W W #.d.d.d. .N C m [ d.d.d.d.d.d.d.d.1.>.z.z.$.8.d.d.d.d.d.d.d.d.d.d.d.d.d.d.d.d.d.d.d.d.d.d.d.d.",
"d.d.d.d.d.d.d.d.d.d.d.d.d.d.d.d.d.d.d.d.d.d.d.d.d.d.d.d.d.d. .U W H 7.d.d./ V V n O.d.d.d.d.d.d.d.8.$.h.h.,.-.d.d.d.d.d.d.d.d.d.d.d.d.d.d.d.d.d.d.d.d.d.d.d.d.d.",
"d.d.d.d.d.d.d.d.d.d.d.d.d.d.d.d.d.d.d.d.d.d.d.d.d.d.d.d.d.d.d.S U Z } d.7.n m m g 9.d.d.d.d.d.d.d.[ T h.z.G 7.d.d.d.d.d.d.d.d.d.d.d.d.d.d.d.d.d.d.d.d.d.d.d.d.d.",
"d.d.d.d.d.d.d.d.d.d.d.d.d.d.d.d.d.d.d.d.d.d.d.d.d.d.d.d.d.d.d.+.C Z A 8. .n v n z 9.d.d.d.d.d.d.5.D ,.h.,.[ 9.d.d.d.d.d.d.d.d.d.d.d.d.d.d.d.d.d.d.d.d.d.d.d.d.d.",
"d.d.d.d.d.d.d.d.d.d.d.d.d.d.d.d.d.d.d.d.d.d.d.d.d.d.d.d.d.d.d.1.N C m [ / n r r [ d.d.d.d.d.d.d./ I R ,.G 8.d.d.d.d.d.d.d.d.d.d.d.d.d.d.d.d.d.d.d.d.d.d.d.d.d.d.",
"d.d.d.d.d.d.d.d.d.d.d.d.d.d.d.d.d.d.d.d.d.d.d.d.d.d.d.d.d.d.d.8.g m m g l r w e X.d.d.d.d.d.9...b T T J [ d.d.d.d.d.d.d.d.d.d.d.d.d.d.d.d.d.d.d.d.d.d.d.d.d.d.d.",
"d.d.d.d.d.d.d.d.d.d.d.d.d.d.d.d.d.d.d.d.d.d.d.d.d.d.d.d.d.d.d.d.[ v v c 9 w w f 8.d.d.9.d.d.d./ J I T D 8.d.9.d.d.d.d.d.d.d.d.d.d.d.d.d.d.d.d.d.d.d.d.d.d.d.d.d.",
"d.d.d.d.d.d.d.d.d.d.d.d.d.d.d.d.d.d.d.d.d.d.d.d.d.d.d.d.d.d.d.d.7.f c c 6 6 9 k d.9.9.7.8.7. .b J I B [ 7.8.7.8.9.9.9.9.8.7.8.9.8.7.7.7.7.s.7.s.7.7.d.d.d.d.d.d.",
"d.d.d.d.d.d.d.d.d.d.d.d.d.d.d.d.d.d.d.d.d.d.d.d.d.d.d.d.d.d.d.d.d.( w w w 1 6 ] 9.7.o.o.o...p B B J l X.X.X.X.X.X.o.X.o.o.o.o.o.X.X.X.X.X.X.X.X.o.o.O.s.d.d.d.d.",
"d.d.d.d.d.d.d.d.d.d.d.d.d.d.d.d.d.d.d.d.d.d.d.d.d.d.d.d.d.d.d.d.d.o.0 9 w 2 4 X.7.o.| | | ^ b M b b ~ ..| | ....| | | | | | | | | | ..........| ....o.O.8.d.d.d.",
"d.d.d.d.d.d.d.d.d.d.d.d.d.d.d.d.d.d.d.d.d.d.d.d.d.d.d.d.d.d.d.d.d.9.k 6 6 6 7 5.o...| | | p b x b a { ..| | | | | | | | | | | | | | | | ..| | | | | ..X.O.d.d.d.",
"d.d.d.d.d.d.d.d.d.d.d.d.d.d.d.d.d.d.d.d.d.d.d.d.d.d.d.d.d.d.d.d.d.d.~ 1 1 2 u 5.o.| | | ^ 0 q q q ~ ....| | | | | | | | | | | | | | | | | | | | | | ....O.d.d.d.",
"d.d.d.d.d.d.d.d.d.d.d.d.d.d.d.d.d.d.d.d.d.d.d.d.d.d.d.d.d.d.d.d.d.d.j & 1 1 1 { o.| | | p q 8 q i ] | | | | | | | | | | | | | | | | ..| | | | | | | | | O.d.d.d.",
"d.d.d.d.d.d.d.d.d.d.d.d.d.d.d.d.d.d.d.d.d.d.d.d.d.d.d.d.d.d.d.d.d.s.7 $ & & & h o.| | ^ 0 8 5 8 p ..| | | | | | | | | | | | | | | | | | | | | | | | | | O.9.d.d.",
"d.d.d.d.d.d.d.d.d.d.d.d.d.d.d.d.d.d.d.d.d.d.d.d.d.d.d.d.d.d.d.d.d.o.: # $ & $ & ' | | k 8 5 5 5 ~ | | | | | | | | | | | | ..| | | | | | | | | | | | | | O.d.d.d.",
"d.d.d.d.d.d.d.d.d.d.d.d.d.d.d.d.d.d.d.d.d.d.d.d.d.d.d.d.d.d.d.d.d.{ # # # & $ $ h ..{ i 5 < 3 7 ] ..| ..| | | | | | | ..| | | | | | | | | | | | | | | | O.d.d.d.",
"d.d.d.d.d.d.d.d.d.d.d.d.d.d.d.d.d.d.d.d.d.d.d.d.d.d.d.d.d.d.d.d.d.k # X X $ # # ; { ^ 5 < % < u | | | | | | | | | | | | | | | | | | | | | | | ....| | | O.s.d.d.",
"d.d.d.d.d.d.d.d.d.d.d.d.d.d.d.d.d.d.d.d.d.d.d.d.d.d.d.d.d.d.d.d.d.h X X X # # # X ! j < % % % d | ..| | ..| | | | | | | | | | | | | | | | | | | | | | | O.d.d.d.",
"d.d.d.d.d.d.d.d.d.d.d.d.d.d.d.d.d.d.d.d.d.d.d.d.d.d.d.d.d.d.d.d.s.t X X X X $ X X t , < @ % % ' | | | | | | | | | | | | | | | | ..| | | | | | | | | ....7.s.d.d.",
"d.d.d.d.d.d.d.d.d.d.d.d.d.d.d.d.d.d.d.d.d.d.d.d.d.d.d.d.d.d.d.d.s.; X X X   X X o + & % @ @ , { | | | | | | | | | | | | | | | | | | | | | | | | | | | ..O.d.d.d.",
"d.d.d.d.d.d.d.d.d.d.d.d.d.d.d.d.d.d.d.d.d.d.d.d.d.d.d.d.d.d.d.d.5.= . . . o X X . . @ @ @ @ y | | | | | | | | | | | | | | | | | | | | | | | | | | | | | 5.d.d.d.",
"d.d.d.d.d.d.d.d.d.d.d.d.d.d.d.d.d.d.d.d.d.d.d.d.d.d.d.d.d.d.d.d.5.* . . . = = X .   @ @ @ X s ..| | | | | | | | | | | | | | | | | | | | | | | | | | | | O.d.d.d.",
"d.d.d.d.d.d.d.d.d.d.d.d.d.d.d.d.d.d.d.d.d.d.d.d.d.d.d.d.d.d.d.d.5.*       > t   . . . @ . O ! ..| | | | | | | | | | | | | | | | | | | | | | | | | | | | O.s.d.d.",
"d.d.d.d.d.d.d.d.d.d.d.d.d.d.d.d.d.d.d.d.d.d.d.d.d.d.d.d.d.d.d.d.5.*       > h o . .   .   O ^ | | | | | | | | | | | | | | | | | | | | | | | | | | | | | 5.d.d.d.",
"d.d.d.d.d.d.d.d.d.d.d.d.d.d.d.d.d.d.d.d.d.d.d.d.d.d.d.d.d.d.d.d.7.* o     * ~           . O ' ..| | | | | | | | | | | | | | | | | | | | | | | | | | o.O.7.s.d.d.",
"d.d.d.d.d.d.d.d.d.d.d.d.d.d.d.d.d.d.d.d.d.d.d.d.d.d.d.d.d.d.d.d.7.-       o ~ o           * { o.X.X.o.o...o.X.o.X.o.X.X.X.X.X.X.X.o.X.X.X.X.o.X.X.o.O.s.d.d.d.d.",
"d.d.d.d.d.d.d.d.d.d.d.d.d.d.d.d.d.d.d.d.d.d.d.d.d.d.d.d.d.d.d.d.9.t       o ~ o         + - d.d.7.7.7.7.7.7.7.7.7.7.7.7.7.7.7.7.7.7.7.7.7.7.7.7.7.7.s.d.d.d.d.d.",
"d.d.d.d.d.d.d.d.d.d.d.d.d.d.d.d.d.d.d.d.d.d.d.d.d.d.d.d.d.d.d.d.9.y         s o         * h d.d.9.d.d.d.d.d.d.d.d.d.d.d.d.d.d.d.d.d.d.d.d.d.d.d.s.d.d.d.d.d.d.d."
};
