/* XPM */
static char *result[] = {
/* columns rows colors chars-per-pixel */
"80 80 63 1 ",
"  c #35355F",
". c #353660",
"X c #353661",
"o c #363660",
"O c #363661",
"+ c #363761",
"@ c #363762",
"# c #363862",
"$ c #373862",
"% c #373863",
"& c #373964",
"* c #373A65",
"= c #383965",
"- c #383A65",
"; c #383A66",
": c #383B66",
"> c #383B67",
", c #393B67",
"< c #393C68",
"1 c #393D68",
"2 c #393C69",
"3 c #393D69",
"4 c #393D6A",
"5 c #3A3D6A",
"6 c #3A3E6A",
"7 c #3A3E6B",
"8 c #3A3F6C",
"9 c #3B3F6C",
"0 c #3B406D",
"q c #3B416F",
"w c #3C416F",
"e c #3C426F",
"r c #3C4270",
"t c #3D4271",
"y c #3D4371",
"u c #3D4372",
"i c #3E4372",
"p c #3D4472",
"a c #3E4472",
"s c #3E4473",
"d c #3E4573",
"f c #3E4474",
"g c #3E4574",
"h c #3F4574",
"j c #3F4575",
"k c #3E4675",
"l c #3F4675",
"z c #3F4676",
"x c #3F4776",
"c c #3F4777",
"v c #404877",
"b c #404878",
"n c #404978",
"m c #404979",
"M c #41497A",
"N c #414A7A",
"B c #414A7B",
"V c #414B7B",
"C c #424A7B",
"Z c #424B7B",
"A c #414B7C",
"S c #424B7C",
"D c #424C7D",
/* pixels */
"DDDDDDDDDDDDDDDDDDDDDDDDDDDDDDDDDDDDDDDDDDDDDDDDDDDDDDDDDDDDDDDDDDDDDDDDDDDDDDDD",
"DDDDDDDDDDDDDDDDDDDDDDDDDDDDDDDDDDDDDDDDDDDDDDDDDDDDDDDDDDDDDDDDDDDDDDDDDDDDDDDD",
"DDDDDDDDDDDDDDDDDDDDDDDDDDDDDDDDDDDDDDDDDDDDDDDDDDDDDDDDDDDDDDDDDDDDDDDDDDDDDDDD",
"DDDDDDDDDDDDDDDDDDDDDDDDDDDDDDDDDDDDDDDDDDDDDDDDDDDDDDDDDDDDDDDDDDDDDDDDDDDDDDDD",
"DDDDDDDDDDDDDDDDDDDDDDDDDDDDDDDDDDDDDDDCvxxxxxxxxxxxxxxxxxxxxxxxxxxxxxxxcBDDDDDD",
"DDDDDDDDDDDDDDDDDDDDDDDDDDDDDDDDDDDDDDSz2&&&&&&&&&&&&&&&&&&&&&&&&&&&&&&&:gVDDDDD",
"DDDDDDDDDDDDDDDDDDDDDDDDDDDDDDDDDDDDDBd7#                               o3pBDDDD",
"DDDDDDDDDDDDDDDDDDDDDDDDDDDDDDDDDDDDDb3.                                  1nDDDD",
"DDDDDDDDDDDDDDDDDDDDDDDDDDDDDDDDDDDDDb2                                   <bDDDD",
"DDDDDDDDDDDDDDDDDDDDDDDDDDDDDDDDDDDDDb2                                   <bDDDD",
"DDDDDDDDDDDDDDDDDDDDDDDDDDDDDDDDDDDDDb2                                   <bDDDD",
"DDDDDDDDDDDDDDDDDDDDDDDDDDDDDDDDDDDDDb2                                   <bDDDD",
"DDDDDDDDDDDDDDDDDDDDDDDDDDDDDDDDDDDDDb2                                   <bDDDD",
"DDDDDDDDDDDDDDDDDDDDDDDDDDDDDDDDDDDDDb2                                   <bDDDD",
"DDDDDDDDDDDDDDDDDDDDDDDDDDDDDDDDDDDDDb2                                   <bDDDD",
"DDDDDDDDDDDDDDDDDDDDDDDDDDDDDDDDDDDDDb2                                   <bDDDD",
"DDDDDDDDDDDDDDDDDDDDDDDDDDDDDDDDDDDDDb2                                   <bDDDD",
"DDDDDDDDDDDDDDDDDDDDDDDDDDDDDDDDDDDDDb2                                   <bDDDD",
"DDDDDDDDDDDDDDDDDDDDDDDDDDDDDDDDDDDDDb2                                   <bDDDD",
"DDDDDDDDDDDDDDDDDDDDDDDDDDDDDDDDDDDDDb2                                   <bDDDD",
"DDDDDDDDDDDDDDDDDDDDDDDDDDDDDDDDDDDDDb5o                                 .3bDDDD",
"DDDDDDDDDDDDDDDDDDDDDDDDDDDDDDDDDDDDDNp6@                               o3aBDDDD",
"DDDDDDDDDDDDDDDDDDDDDDDDDDDDDDDDDDDDDDAz<%%%%%%%%%%%%%%%%%%%%%%%%%%%%%%%-gVDDDDD",
"DDDDDDDDDDDDDDDDDDDDDDDDDDDDDDDDDDDDDDDNhiiiiiiiiiiiiiiiiiiiiiiiiiiiiiiisMDDDDDD",
"DDDDDDDDDDDDDDDDDDDDDDDDDDDDDDDDDDDDDDDDDDDDDDDDDDDDDDDDDDDDDDDDDDDDDDDDDDDDDDDD",
"DDDDDDDDDDDDDAVVVVVVVVVVVVVVVVVVVVVVVVVVVVVVVVADDDDDDDDDDDDDDDDDDDDDDDDDDDDDDDDD",
"DDDDDDDDDDDDAswqqqqqqqqqqqqqqqqqqqqqqqqqqqqqqezDDDDDDDDDDDDDDDDDDDDDDDDDDDDDDDDD",
"DDDDDDDDDDDSm<...............................+0VSDDDDDDDDDDDDDDDDDDDDDDDDDDDDDDD",
"DDDDDDDDDDDj4$                                &7zDDDDDDDDDDDDDDDDDDDDDDDDDDDDDDD",
"DDDDDDDDDDDrO                                  OuDDDDDDDDDDDDDDDDDDDDDDDDDDDDDDD",
"DDDDDDDDDDDrO                                  OuDDDDDDDDDDDDDDDDDDDDDDDDDDDDDDD",
"DDDDDDDDDDDrO                                  OuDDDDDDDDDDDDDDDDDDDDDDDDDDDDDDD",
"DDDDDDDDDDDrO                                  OuDDDDDDDDDDDDDDDDDDDDDDDDDDDDDDD",
"DDDDDDDDDDDrO                                  OuDDDDDDDDDDDDDDDDDDDDDDDDDDDDDDD",
"DDDDDDDDDDDrO                                  OuDDDDDDDDDDDDDDDDDDDDDDDDDDDDDDD",
"DDDDDDDDDDDrO                                  OuDDDDDDDDDDDDDDDDDDDDDDDDDDDDDDD",
"DDDDDDDDDDDrO                                  OuDDDDDDDDDDDDDDDDDDDDDDDDDDDDDDD",
"DDDDDDDDDDDrO                                  OuDDDDDDDDDDDDDDDDDDDDDDDDDDDDDDD",
"DDDDDDDDDDDrO                                  OuDDDDDDDDDDDDDDDDDDDDDDDDDDDDDDD",
"DDDDDDDDDDDrO                                  OuDDDDDDDDDDDDDDDDDDDDDDDDDDDDDDD",
"DDDDDDDDDDDrO                                  OuDDDDDDDDDDDDDDDDDDDDDDDDDDDDDDD",
"DDDDDDDDDDDrO                                  OuDDDDDDDDDDDDDDDDDDDDDDDDDDDDDDD",
"DDDDDDDDDDDu&X                                O=fDDDDDDDDDDDDDDDDDDDDDDDDDDDDDDD",
"DDDDDDDDDDDby-                               o<amDDDDDDDDDDDDDDDDDDDDDDDDDDDDDDD",
"DDDDDDDDDDDDV0>;;;;;;;;;;;;;;;;;;;;;;;;;;;;;;,yDDDDDDDDDDDDDDDDDDDDDDDDDDDDDDDDD",
"DDDDDDDDDDDDDMbbbbbbbbbbbbbbbbbbbbbbbbbbbbbbbbNDDDDDDDDDDDDDDDDDDDDDDDDDDDDDDDDD",
"DDDDDDDDDDDDDDDDDDDDDDDDDDDDDDDDDDDDDDDDDDDDDDDDDDDDDDDDDDDDDDDDDDDDDDDDDDDDDDDD",
"DDDDDDDDDDDDDDDDDDDDDDDDDDDDDDDDDDDDDDDDDDDDDDDDDDDDDDDDDDDDDDDDDDDDDDDDDDDDDDDD",
"DDDDDDDDDDDDDDDDDDDDDDDDDDDDDDDDDDDDDDDDDDDDDDDDDDDDDDDDDDDDDDDDDDDDDDDDDDDDDDDD",
"DDDDDDDDDDDDDDDDDDDDDDDDDDDDDDDDDDDDDDDDDDDDDDDDDDDDDDDDDDDDDDDDDDDDDDDDDDDDDDDD",
"DDDDDDDDDDDDDDDDDDDDDDDDDDDDDDDDDDDDDDDDDDDDDDDDDDDDDDDDDDDDDDDDDDDDDDDDDDDDDDDD",
"DDDDDDDDDDDDDDDDDDDDDDDDDDDDDDDDDDDDDDDDDDDDDDDDDDDDDDDDDDDDDDDDDDDDDDDDDDDDDDDD",
"DDDDDDDDDDDDDDDDDDDDDDDDDDDDDDDDDDDDDDDDDDDDDDDDDDDDDDDDDDDDDDDDDDDDDDDDDDDDDDDD",
"DDDDDDDDDDDDDDDDDDDDDDDDDDDDDDDDDDDDDDDDDDDDDDDDDDDDDDDDDDDDDDDDDDDDDDDDDDDDDDDD",
"DDDDDDDDDDDDDDDDDDDDDDDDDDDDDDDDDDDDDDDDDDDDDDDDDDDDDDDDDDDDDDDDDDDDDDDDDDDDDDDD",
"DDDDDDDDDDDDDDDDDDDDDDDDDDDDDDDDDDDDDDDDDDDDDDDDDDDDDDDDDDDDDDDDDDDDDDDDDDDDDDDD",
"DDDDDDDDDDDDDDDDDDDDDDDDDDDDDDDDDDDDDDDDDDDDDDDDDDDDDDDDDDDDDDDDDDDDDDDDDDDDDDDD",
"DDDDDDDDDDDDDDDDDDDDDDDDDDDDDDDDDDDDDDDDDDDDDDDDDDDDDDDDDDDDDDDDDDDDDDDDDDDDDDDD",
"DDDDDDDDDDDDDDDDDDDDDDDDDDDDDDDDDDDDDDDDDDDDDDDDDDDDDDDDDDDDDDDDDDDDDDDDDDDDDDDD",
"DDDDDDDDDDDDDDDDDDDDDDDDDDDDDDDDDDDDDDDDDMxlllllllllllllllllllllllllllllllbSDDDD",
"DDDDDDDDDDDDDDDDDDDDDDDDDDDDDDDDDDDDDDDDBt>*******************************9bSDDD",
"DDDDDDDDDDDDDDDDDDDDDDDDDDDDDDDDDDDDDDDMt>.                               &9kADD",
"DDDDDDDDDDDDDDDDDDDDDDDDDDDDDDDDDDDDDDDx>.                                 O0BDD",
"DDDDDDDDDDDDDDDDDDDDDDDDDDDDDDDDDDDDDDDl*                                   8BDD",
"DDDDDDDDDDDDDDDDDDDDDDDDDDDDDDDDDDDDDDDl*                                   8BDD",
"DDDDDDDDDDDDDDDDDDDDDDDDDDDDDDDDDDDDDDDl*                                   8BDD",
"DDDDDDDDDDDDDDDDDDDDDDDDDDDDDDDDDDDDDDDl*                                   8BDD",
"DDDDDDDDDDDDDDDDDDDDDDDDDDDDDDDDDDDDDDDl*                                   8BDD",
"DDDDDDDDDDDDDDDDDDDDDDDDDDDDDDDDDDDDDDDl*                                   8BDD",
"DDDDDDDDDDDDDDDDDDDDDDDDDDDDDDDDDDDDDDDl*                                   8BDD",
"DDDDDDDDDDDDDDDDDDDDDDDDDDDDDDDDDDDDDDDl*                                   8BDD",
"DDDDDDDDDDDDDDDDDDDDDDDDDDDDDDDDDDDDDDDl*                                   8BDD",
"DDDDDDDDDDDDDDDDDDDDDDDDDDDDDDDDDDDDDDDl*                                   8BDD",
"DDDDDDDDDDDDDDDDDDDDDDDDDDDDDDDDDDDDDDDl*                                   8BDD",
"DDDDDDDDDDDDDDDDDDDDDDDDDDDDDDDDDDDDDDDl*                                   8BDD",
"DDDDDDDDDDDDDDDDDDDDDDDDDDDDDDDDDDDDDDDl*                                   8BDD",
"DDDDDDDDDDDDDDDDDDDDDDDDDDDDDDDDDDDDDDDmw;.                               %6dVDD",
"DDDDDDDDDDDDDDDDDDDDDDDDDDDDDDDDDDDDDDDDNe-&&&&&&&&&&&&&&&&&&&&&&&&&&&&&&&7cVDDD",
"DDDDDDDDDDDDDDDDDDDDDDDDDDDDDDDDDDDDDDDDDbgdddddddddddddddddddddddddddddddxZDDDD",
"DDDDDDDDDDDDDDDDDDDDDDDDDDDDDDDDDDDDDDDDDDDDDDDDDDDDDDDDDDDDDDDDDDDDDDDDDDDDDDDD"
};
