/* XPM */
static char *result[] = {
/* columns rows colors chars-per-pixel */
"80 80 140 2 ",
"   c #3F0F1F",
".  c #151327",
"X  c #1B1326",
"o  c #171528",
"O  c #1C1428",
"+  c #370F20",
"@  c #3B0F20",
"#  c #241225",
"$  c #2B1224",
"%  c #231529",
"&  c #2E172A",
"*  c #271B2B",
"=  c #2F182C",
"-  c #331021",
";  c #3B1122",
":  c #31172B",
">  c #3A1629",
",  c #33182C",
"<  c #3D192C",
"1  c #3D212E",
"2  c #3F2430",
"3  c #430F1F",
"4  c #4B0D1D",
"5  c #530E1C",
"6  c #44101F",
"7  c #4A101F",
"8  c #55101F",
"9  c #58101F",
"0  c #441222",
"q  c #4C1223",
"w  c #421629",
"e  c #441A2E",
"r  c #4A1B2E",
"t  c #541323",
"y  c #5C1424",
"u  c #5B1728",
"i  c #521B2D",
"p  c #5D1A2C",
"a  c #471B30",
"s  c #4D1C31",
"d  c #521C30",
"f  c #5A1E31",
"g  c #631525",
"h  c #641728",
"j  c #691728",
"k  c #64192B",
"l  c #6C1A2B",
"z  c #721C2E",
"x  c #631E31",
"c  c #6C1E31",
"v  c #751E31",
"b  c #791F31",
"n  c #52202E",
"m  c #4E2231",
"M  c #532332",
"N  c #5D2935",
"B  c #50373C",
"V  c #662033",
"C  c #6C2134",
"Z  c #712235",
"A  c #7D2234",
"S  c #742738",
"D  c #7E2438",
"F  c #782B39",
"G  c #7B3139",
"H  c #553E41",
"J  c #5C4444",
"K  c #5C4A4D",
"L  c #5D4E53",
"P  c #5D525A",
"I  c #5E5C67",
"U  c #5F5E6A",
"Y  c #822437",
"T  c #832539",
"R  c #8C263B",
"E  c #842A3B",
"W  c #8D2A3C",
"Q  c #93293E",
"!  c #843E3E",
"~  c #962E40",
"^  c #982F41",
"/  c #8B3540",
"(  c #963342",
")  c #9A3443",
"_  c #9E3846",
"`  c #864040",
"'  c #894643",
"]  c #9D4546",
"[  c #9F4048",
"{  c #914E4A",
"}  c #99544D",
"|  c #A3444A",
" . c #A8434C",
".. c #AC4A4F",
"X. c #AA4F50",
"o. c #B44951",
"O. c #B94C53",
"+. c #B65656",
"@. c #BB5457",
"#. c #B55956",
"$. c #BC5658",
"%. c #BB5B59",
"&. c #BF6E5D",
"*. c #A9735E",
"=. c #B2725D",
"-. c #B87F65",
";. c #C35559",
":. c #C45A5B",
">. c #CD5D5E",
",. c #D05D5F",
"<. c #C0635D",
"1. c #C26B5E",
"2. c #C3745F",
"3. c #D15E60",
"4. c #C76D62",
"5. c #D66162",
"6. c #DA6364",
"7. c #CC7D66",
"8. c #C4776D",
"9. c #D27D69",
"0. c #BD8066",
"q. c #CB8E6F",
"w. c #D18268",
"e. c #CA8E71",
"r. c #D38475",
"t. c #DF8F72",
"y. c #D4897D",
"u. c #E39474",
"i. c #D48E84",
"p. c #CD9C85",
"a. c #D49087",
"s. c #D69F9E",
"d. c #CEA491",
"f. c #CEA897",
"g. c #CFAD9E",
"h. c #CFAEA1",
"j. c #D0B3A8",
"k. c #D1BDB8",
"l. c #D1C3C2",
"z. c #D3CACE",
/* pixels */
". . . . . . . . . . . . . . . . . . . . . . . . . . . . . . . . . . . . . . . . . . . . . . . . . . . . . . . . . . . . . . . . . . . . . . . . . . . . . . . . ",
". . . . . . . . . . . . . . . . . . . . . . . . . . . . . . . . . . . . . . . . . . . . . . . . . . . . . . . . . . . . . . . . . . . . . . . . . . . . . . . . ",
". . . . . . . . . . . . . . . . . . . . . . . . . . . . . . . . . . . . . . . . . . . . . . . . . . . . . . . . . . . . . . . . . . . . . . . . . . . . . . . . ",
". . . . . . . . . . . . . . . . . . . . . . . . . . . . . . . . . . . . . . . . . . . . . . . . . . . . . . . . . . . . . . . . . . . . . . . . . . . . . . . . ",
"& & & & & : & : & & # O . . . . O # & & & = = = & & = = = & = = = = & = & % . . . . . O % & : & % : : & & : : : : : & : & & $ % # . . . . . O & & & , , = & = = ",
"Z C Z Z C Z Z C Z k q - X . . . - 0 x v c C v c c c Z c Z c Z C v c v c p 0 # . . . X @ t c v c v Z Z C C v C C C C C Z C C c u @ # . . . $ 7 u c c c c c c v c ",
"Y Y Y Y Y Y T Y Y A j q   X X $ 0 l b Y T Y Y Y Y Y Y Y Y Y Y Y D Y Y Y b h 0 $ X % ; t c b Y Y D Y Y Y T Y Y Y T T Y Y Y Y b z y @ # . $ 3 j v D Y Y Y / Y Y Y ",
"Y Y Y Y Y Y Y Y Y Y Y l 4 $ $ 4 k D Y Y Y Y Y Y Y Y Y Y Y Y Y Y Y Y Y Y Y b h 3 $ + 8 z Y T Y Y Y Y Y Y Y Y Y Y Y Y Y Y Y T T T v t + X + y b Y T T Y Y b Y Y Y ",
"Y Y Y Y Y Y Y Y Y Y Y A l & : k b Y Y Y Y Y Y Y Y Y Y Y Y Y Y Y Y Y Y Y Y Y v u & w l b b T T T Y Y Y Y Y Y Y Y Y Y Y Y Y Y Y Y b z a O i z Y Y Y Y Y Y Y Y Y Y ",
"Y T Y Y Y Y Y Y Y Y Y Y S < , Z Y Y Y Y Y Y Y Y Y Y Y Y Y Y Y Y Y Y Y Y Y Y Y x : s b T Y Y T Y Y Y Y Y Y T Y Y Y Y Y Y Y Y Y Y T Y s O f Y Y Y T Y Y Y Y Y Y Y ",
"Y Y Y Y Y Y Y Y Y Y Y Y D , , v Y Y Y Y Y Y Y Y Y Y Y Y Y Y Y Y Y Y Y Y Y Y Y c = s D T Y Y Y Y Y Y Y Y Y Y Y Y Y Y Y Y Y Y Y Y T b i O f T T Y Y Y Y Y Y Y Y Y ",
"Y Y Y Y Y Y Y Y Y Y Y Y A , < Z Y Y Y Y Y Y Y Y T Y Y Y Y Y Y Y Y Y Y Y Y Y Y x = a b T Y Y Y Y Y Y Y Y Y Y Y Y Y Y Y Y Y Y Y Y b Y a O f T Y Y Y Y Y Y Y Y Y Y ",
"Y Y Y Y Y Y Y Y Y Y Y Y Z < , c Y Y Y Y Y Y Y Y Y Y Y Y Y Y Y Y Y Y Y Y Y Y Y x = a b Y Y Y Y Y Y Y Y Y Y Y Y Y Y Y Y Y Y Y Y Y Y b s O p Y T T Y Y Y Y Y Y Y Y ",
"Y Y Y Y Y Y Y Y Y Y Y z y $ - t v b Y Y Y T Y Y Y Y Y Y Y Y Y Y Y Y Y Y Y D l q % @ h b Y Y Y Y Y Y Y Y Y Y Y Y T Y Y Y Y Y Y Y b h ; O 0 l b T Y Y Y Y Y Y Y Y ",
"Y Y Y Y Y Y Y Y Y A b y ; # # ; t z b Y Y Y Y Y Y Y Y Y Y Y Y Y Y Y Y Y b l q + % $ 0 u v Y Y Y Y Y Y Y Y T Y Y Y Y Y Y Y Y Y b c 0 - X - q l b Y Y Y Y Y Y Y T ",
"Y Y Y Y Y Y Y Y Y b y   % . X X ; u b Y Y Y Y Y Y Y Y Y Y Y Y Y Y Y Y Y z i + O . X $ 0 g b Y Y Y Y Y Y Y T Y Y Y Y Y Y Y Y A j 0 # . . X - 5 l Y Y Y Y Y Y Y T ",
"d d i d d d d d i 0 @ $ . . . . # @ q s d d d d i i i i i i i d d d d 5 3 + X X . . X $ @ r d d d d d d d d i d i d d d d d r 0 - X . . . X   @ i i i d i a d d ",
"% O # # % $ $ $ $ # # # # X X X # # $ $ # $ & # # # X O O % # $ $ # $ $ $ $ # # # X # # $ # & $ $ % & # O X O O % $ $ # # $ % $ # # X X # # # # # $ $ # $ $ # O ",
". . X $ 3   @ 3     @ 4 4 @ 3 3 3     3 @ @ 3 @ + X . . . # @ @ 3 @ @ 3 @ 4 4 @ @ @ 3 @ 3 @ 3 @ 3     $ . . . . $   3 3     0   @ 3 @ 3       3 @ 3 @ 3 4 - X . ",
". X $ 3 5 5 4 5 5 5 5 5 4 5 5 4 5 5 5 4 5 5 5 5 4 - O . O + 4 4 5 5 5 5 4 5 5 5 5 5 4 5 5 5 5 5 5 5 4   # . X # @ 4 5 4 5 5 4 5 5 5 5 5 5 5 4 5 5 4 5 5 5 4 - # ",
". $ 3 5 5 5 5 5 9 5 5 9 5 5 5 5 5 5 5 5 5 5 5 5 5 4 - O + 4 5 5 5 5 5 5 5 5 5 5 5 5 5 5 5 5 5 5 5 5 5 5 3 $ #   4 5 5 5 5 5 5 5 5 5 5 9 5 5 5 5 5 5 9 5 5 5 4 4 ",
"X ; 5 g l z z z l l l z z l z z z z z z l z z z j 5 - O @ 9 l l l z z z z z z z j z z z v l v z z z z g 4 $ $ 3 9 z z z z z z z l z l z l z l v z z l l z j 9 5 ",
". ; y A R R Q Q Q R R Q Q Q Q R Q Q Q R R Q R Q Y g @ O 0 j R R R Q ~ Q Q R R R Q Q Q R Q R Q Q R R Q z 9 $   5 z R Q R R Q Q Q R Q Q Q Q Q R Q ~ Q R Q Q Y j 9 ",
"o w A R Q Q Q Q Q Q Q Q Q Q Q Q Q Q Q Q Q Q Q Q R Y a O d Y Q Q ~ Q Q Q Q Q Q Q Q Q Q Q Q Q Q Q Q Q Q R A : - h R R Q Q Q Q Q Q Q Q Q Q Q Q Q Q Q Q Q Q Q Q Y Y ",
"o d R Q Q Q Q Q Q Q Q Q Q Q Q Q Q Q Q Q Q Q Q ~ Q R d O c Q Q Q Q Q Q Q Q Q Q Q Q Q Q Q Q Q Q Q ~ R ~ R T < a Y Q Q Q Q Q Q Q Q Q Q Q Q Q Q Q Q Q Q Q Q Q Q Q Q ",
"O d R Q Q Q Q Q Q Q ~ Q Q Q Q R Q Q Q Q Q Q Q Q Q R d O x Q Q Q Q Q Q Q Q Q Q Q Q Q Q Q Q Q Q Q Q ~ Q ~ E , < b Q Q Q Q Q Q Q Q ~ Q Q Q Q Q Q Q Q Q Q Q Q Q Q R ",
"o w z T Q Q Q Q Q Q Q Q Q Q ~ ~ Q Q Q Q Q Q R ~ R z a X i b Q Q Q Q Q Q Q Q Q Q Q Q Q Q ~ Q Q Q Q Q Q Y c > > h Y Q Q Q Q Q Q Q Q Q Q Q Q Q Q Q Q Q Q Q Q Q Y z ",
"X ; 5 A W Q Q Q Q Q Q Q ~ R R ~ Q R Q Q Q Q Q ~ Y y + X + g R Q Q Q Q Q Q Q Q Q Q Q Q Q Q Q Q Q Q Q ~ l 5 $ $ 3 l R Q Q Q Q Q Q Q Q Q ~ Q Q Q Q Q Q Q Q Q Y g 5 ",
". X + t l R Q Q Q Q ~ ~ ~ R ~ ~ Q ~ ~ ~ ~ R R b y $ X X # @ g b ~ ~ ~ ~ Q ~ Q Q ~ ~ Q ~ ~ ~ ~ ~ Q T l 4 $ X . # 0 l T ~ Q Q Q Q ~ ~ ~ ~ Q ~ ~ Q Q Q Q ~ A h ; $ ",
". . X + q V Z S Z v Z C S v Z Z v v S v C c x t @ X . . . # + i c Z c c v v Z C Z c C S c Z c v z x 0 + . . . . $ 0 p C A C Z Z Z Z c c c Z S C v Z Z Z u @ # . ",
". . . . X # % % % % % O % % % % # % % % % % O O X . . . . . X X % % % % % % % % % % O % % % O O O O X X . . . . . X O % % % % % % % % % % % % % % O % % X X X . ",
"$ + $ + - $ - $ - - + % . . . . O - - - & - - - - $ $ + - - - - $ $ $ - + $ O . . . O $ - $ - - + - - - $ + $ + $ + + $ + $ - - $ O . . . O $ $ + + $ + $   $ $ ",
"8 8 5 5 5 5 5 5 5 5 4 + X . . O + 4 5 5 8 8 5 8 4 8 5 8 8 8 8 8 8 5 5 8 5 3 $ X . X # @ 5 5 9 5 5 5 5 9 5 5 9 9 5 5 5 5 9 5 9 5 3 $ . . X # 4 5 5 5 5 5 5 8 8 8 ",
"z v v z v z z l v j 9 4 @ X # @ 3 5 l z z z v z v z z z v z z z z z z z h 8 3 + X $ @ 4 9 b b Y Y Y Y b Y Y Y b b Y b Y Y b b g 4 3 # X + 3 4 g z z v z z v v z ",
"b Y Y Y Y Y Y Y Y z j 9 4 $ $ 0 9 h z Y Y Y b T Y Y b Y Y Y Y Y Y Y D Y l g 5 3 # + 5 y l R Q Q Q Q Q Q Q Q Q Q Q Q Q Q Q Q R z g 5 + O   5 y z Y Y Y Y Y b Y Y ",
"Y Y Y T Y Y Y Y Y Y b j 4 $ $ 4 g b Y Y Y Y Y Y Y Y Y Y Y Y Y Y Y Y Y Y D z g 3 # + 8 z R Q Q Q Q Q Q Q Q Q Q Q Q Q Q Q Q Q R R b t - .   9 z b Y Y Y Y Y Y Y Y ",
"Y Y Y T Y Y Y Y Y Y Y b x $ : t z b T T Y Y Y Y Y Y Y Y Y Y Y Y Y Y Y Y Y Y l t $ w l Y Q Q Q Q Q Q Q Q Q Q Q Q Q Q Q Q Q Q Q Q R z w X q l Y T Y Y Y Y Y Y Y Y ",
"Y Y Y T Y Y Y Y T Y Y Y b , , v Y Y Y Y Y Y Y Y Y Y Y Y Y Y Y Y Y Y Y Y Y Y b x : i R ~ Q Q Q Q Q Q Q Q Q Q Q Q Q Q Q Q Q Q Q Q Q T d O f A Y Y Y Y Y Y Y Y Y A ",
"Y Y Y Y Y Y Y Y Y Y Y Y b < , v Y Y Y Y Y Y Y Y Y Y Y Y Y Y Y Y Y T Y T Y T T x , d R Q Q Q Q Q Q Q Q Q Q Q Q Q Q Q Q Q Q Q Q Q Q R d X f Y Y Y Y Y Y Y Y Y Y Y ",
"Y Y Y Y Y Y Y Y Y Y Y b c : : l b Y Y Y Y Y Y Y Y Y Y Y Y Y Y Y Y Y Y T T b b x , a D Q ^ Q Q Q Q Q Q Q Q Q Q Q Q Q Q Q Q Q Q Q Q D i X i A Y Y Y Y Y Y Y Y Y Y ",
"Y Y Y Y Y Y Y Y Y Y Y z t $ $ 4 l Y Y Y Y Y Y Y b Y Y Y Y Y Y T Y Y Y T Y b j q % ; y b Q Q Q Q Q Q Q Q Q Q Q Q Q Q Q Q Q Q R ~ Y h > X @ h A Y Y Y Y Y Y Y Y Y ",
"b ~ Y b ~ D Y Y Y b l t + % X - q l b Y Y Y Y Y / D Y T T Y T T Y T T T v k 0 $ O # @ u b R Q Q Q Q Q ~ Q Q Q Q Q Q ~ ~ Q ~ ~ b h ; # X $ 0 h z Y Y Y T Y Y Y Y ",
"v v c v C v v c v x q - O . . X $ q k v Z Z Z Z v v v v v Z v Z v v v v h 0 $ O . . O 0 i D T D D T T T T T T D R T Y T T D b p 0 # . . X # 6 y Z Z Z Z Z Z Z Z ",
"< < < , < < e , < < $ & . O . . X $ > e e < < < < < < > < < < < < < < < : $ O . . . . # & a < a a a < a a < e < 0 a e a < e e , # X . . . X $ & < < w < < w < < ",
". . . O % : : : & & & = = = = & = = & & & & & % O . . . . O % % & & = = & = & & = & = & = & = = & & # O . . O O X # & = & = & = : : & & & : & : : & & & & X X . ",
". . % + i x c v Z Z C C C C v Z c Z c v v C c t 0 % . . . $ 3 u c Z Z C c v Z C c v c Z Z C C v C x q + X . . X - q x v Z c Z Z C v Z c Z C c Z Z Z C Z p 0 $ . ",
". X ; u l b b b Y Y Y Y Y Y Y Y T Y Y Y Y Y D v y @ # X $ 0 k z T Y Y Y T Y Y Y Y Y Y Y Y Y Y Y Y b l t - X X - 0 k b Y Y Y Y Y Y Y Y Y Y Y Y Y Y Y Y Y b h 3 + ",
"X @ 8 z Y / ^ b T T Y Y T Y Y Y Y Y Y Y Y Y Y Y z t - O + g b Y Y Y Y Y T Y Y Y Y Y Y Y Y Y Y Y Y Y Y l 4 $ $ 4 k Y Y Y Y Y Y Y Y T Y Y Y Y Y Y Y Y Y Y Y b h 5 ",
". 0 c b T Y Y Y Y Y Y Y Y Y Y Y Y Y Y Y Y Y Y Y Y z e O i z Y Y Y Y Y Y Y Y Y Y Y Y Y Y Y Y Y Y Y Y Y b k : : x v Y Y Y Y Y Y Y Y Y Y Y Y Y Y Y Y Y Y Y Y Y b z ",
"O a D Y Y Y Y Y Y Y Y Y Y Y Y Y Y Y Y Y Y Y Y Y Y b s X f Y Y Y Y Y Y Y Y Y Y Y Y Y Y Y Y Y Y Y Y Y Y Y D < > Z Y Y Y Y Y Y Y Y Y Y T Y Y Y Y Y Y Y Y T Y Y Y Y ",
"O a b Y Y Y Y Y Y Y Y Y Y Y T Y Y Y Y Y Y Y Y Y T b a % f Y Y Y Y Y Y Y Y Y Y Y Y T Y Y Y Y Y Y Y Y Y Y Z , < Z Y Y Y Y Y Y Y Y Y Y Y Y Y Y Y Y Y Y Y Y Y Y Y Y ",
"O a D Y Y Y Y Y Y Y Y Y Y Y Y Y Y Y Y T Y Y Y Y T b d X x T Y Y Y Y Y Y Y Y Y Y Y Y Y Y Y Y Y Y Y Y Y Y D < , Z Y Y Y Y Y Y Y Y Y Y Y Y Y Y Y Y Y Y Y Y Y Y Y T ",
". a b Y Y Y Y Y Y Y Y Y Y Y Y Y Y Y Y Y Y Y Y T Y b a % i Y T T Y Y Y Y Y Y Y Y Y Y Y Y Y Y Y Y Y Y Y Y v > > c Y Y Y Y Y Y Y Y Y Y Y Y Y Y Y Y Y Y Y Y Y Y A A ",
"O ; h v Y Y Y Y Y Y Y Y Y Y Y Y Y Y Y Y Y Y Y T b k ; X 0 j b Y Y T Y Y Y Y Y Y Y Y Y Y Y Y Y Y Y Y Y z u & $ t l Y Y Y Y Y Y Y Y Y Y Y Y Y Y Y Y Y Y Y T b l g ",
". $ 3 h b Y Y Y Y Y Y Y T Y Y Y Y Y Y Y Y Y T b l q $ . - q l b Y Y Y Y Y Y Y Y Y Y Y Y Y Y Y Y Y Y v u @ # # + y z b T Y Y Y Y Y Y Y Y Y Y Y Y Y Y Y Y b l q 3 ",
". O # 3 h b T T Y Y Y Y T Y T T Y Y T Y Y Y b l q # . . O - t l Y Y Y Y Y Y Y Y Y T Y Y Y Y Y Y Y b g @ # . . O + y v Y Y Y T T Y Y T Y Y T Y Y Y T Y Y v t + O ",
". . . $ ; a s s i d i d d d d d d d s d d d a 0 - X . . . X - w d d d d d d d d d d d d d d d d d a + $ . . . . # + a d d d d d d d d d d d d f d i s i e ; X . ",
". . . . O % % O % O % O O O O O % O O O O % X X . . . . . . . % O O O % O O O % O O % O O X O O O % O . . . . . . O % O O O % O O O O O % O O O O % O O X o . . ",
". . . . . . . . . . . . . . . . . . . . . . . . . . . . . . . . . . . . . . . . . . . . . . . . . . . . . . . . . . . . . . . . . . . . . . . . . . . . . . . . ",
". . O & = = = = = = = : : : : : = = = = = , = < : : : = = : = = : : = = # . . . . . O % : : & = = : : : = : : = , , : : : : & : , : & , : & : : : & , , # X . . ",
". . % s v x c v V c Z x c c x c c c V c C c c c c c c C C C C c C C C c a O . . . . & s C C C c c c x C C c V C C x C c c c C C C c c V V c c C V c V V r O . . ",
". : d c T Y T Y / Y Y Y Y T Y T Y Y T Y T Y T D D T Y Y Y Y D Y Y Y T Y c a % . . : a v Y T D Y Y Y Y T Y Y T T T Y T Y Y Y Y Y T Y T Y T Y T Y T T T T c e & . ",
". a b Y Y Y T Y D b Y Y Y Y Y Y Y Y Y Y D Y Y D Y T Y Y Y T Y Y Y Y Y Y D c > . O a Z Y Y Y Y Y Y Y Y Y Y Y Y Y Y Y Y Y Y Y Y T Y Y Y Y Y Y Y Y Y Y Y Y A C , o ",
"O a D Y Y Y Y Y Y T Y Y Y Y Y Y Y Y Y Y Y Y Y Y Y T Y Y Y Y Y Y Y Y Y Y Y c < . . a D Y Y Y Y Y Y Y Y Y Y Y T Y Y Y Y Y Y Y Y D Y Y Y Y Y Y Y Y Y Y Y Y Y Z < . ",
"O a b Y T ^ ~ _ _ ( ) _ ) ) ) ~ _ ) _ _ ~ ) ( ) ) ^ ( ( ) ( ( ( ) ( Q E Y Z , . O r A Y W Q ) Q _ Q Q _ ) Q ) ) ) ) ) ) ^ ^ ( ) ) ) ) _ ( ( ) ( _ ( W T Y C , o ",
"O a v / ^ ;.>.>.:.>.,.>.>.>.>.>.>.>.>.>.>.>.>.>.>.>.,.>.>.,.,.,.,.,.@.Q T Z > . o r A Y Q ;.1.,.5.,.,.,.>.,.,.<.,.,.,.,.,.,.,.>.,.,.>.>.,.>.,.,.>.>.o.( T Z , . ",
"X a Y _ O.:.>.:.3.5.:.>.3.>.>.>.>.3.>.:.>.>.5.>.>.>.3.>.>.3.>.>.<.,.;.o._ S , . . r E _ O.:.,.<.<.,.<.>.5.<.3.3.,.<.,.1.>.>.>.>.>.5.:.>.>.>.:.>.>.5.:.o.) C < . ",
"O a ~ O.3.$.+.$.+.+.+.+.+.@.+.+.+.+.+.+.+.+.+.+.+.+.+.+.+.+.+.+.+.+.:.6.o.A , X o m W @.6.$.+.+.;.+.@.@.+.+.+.+.+.+.+.+.@.+.+.+.+.+.+.+.+.+.+.@.+.+.:.6.o.A , o ",
"X a / ..:.$.+.+.+.+.+.+.+.+.+.+.+.+.+.+.+.+.+.+.+.+.+.+.+.+.+.+.+.+.$.:. .S , X o r E ..:.@.+.+.+.+.+.+.+.+.+.+.+.+.+.+.+.+.+.+.+.+.+.+.+.+.+.+.+.+.+.:. .S < . ",
"X e Y | $.+.+.+.+.+.+.+.+.+.+.+.+.+.+.+.+.+.+.+.+.+.+.+.+.+.+.+.+.+.+.+.] S > o O r E | +.+.+.+.+.+.+.+.+.+.+.+.+.+.+.+.+.+.+.+.+.+.+.+.+.+.+.+.+.+.+.+.[ F , . ",
"o a D [ +.+.+.+.+.+.+.+.+.+.+.+.+.+.+.+.+.+.+.+.+.+.+.+.+.+.+.+.+.+.+.#.[ Z , o o r E | +.+.+.+.+.+.+.+.+.+.+.+.+.+.+.+.+.+.+.+.+.+.+.+.+.+.+.+.+.+.+.+.[ S > . ",
"X a / | +.+.+.+.+.+.+.+.+.+.+.+.+.+.+.+.+.+.+.+.+.+.+.+.+.+.+.+.+.+.+.+.] S < o O r E | +.+.+.+.+.+.+.+.+.+.+.+.+.+.+.+.+.+.+.+.+.+.+.+.+.+.+.+.+.+.+.+.[ A , . ",
"o a / _ +.+.+.+.+.+.+.+.+.+.+.+.+.+.+.+.+.+.+.+.+.+.+.+.+.+.+.+.+.+.+.+.[ S , . X r E | +.+.+.+.+.+.+.+.+.+.+.+.+.+.+.+.+.+.+.+.+.+.+.+.+.+.+.+.+.+.+.+.[ S , o ",
"o a / [ +.+.+.+.+.+.+.+.+.+.+.+.+.+.+.+.+.+.+.+.+.+.+.+.+.+.+.+.+.+.+.+.] S > . X e E | #.+.+.+.+.+.+.+.+.+.+.+.+.+.+.+.+.+.+.+.+.+.+.+.+.+.+.+.+.+.+.+._ S , . ",
"X s / X.4.%.+.+.+.+.+.+.+.+.+.+.+.+.+.+.+.+.+.+.+.+.+.+.+.+.+.+.+.+.%.4...A , . X r E #.4.+.+.+.+.+.+.+.+.+.+.+.+.+.+.+.+.+.+.+.+.+.+.+.+.+.+.+.+.+.&.4.X.S : X ",
"X a / 4.t.<.+.+.+.+.+.+.+.+.+.%.+.+.+.+.+.+.#.o.+.+.+.+.+.#.+.+.+.+.4.u.&.F , . o r E 4.t.&.+.+.+.+.+.+.+.+.+.+.+.+.+.+.+.+.+.+.+.+.+.+.+.+.+.+.+.@.4.t.4.G : . ",
". : N } 8.7.9.9.9.9.9.i.s.s.s.s.s.s.s.s.s.s.s.y.r.s.i.9.9.9.9.9.9.9.7.8.{ M $ . o , N } 8.w.9.9.9.9.w.i.s.s.s.s.s.s.s.s.s.s.s.y.r.s.a.9.9.9.9.9.9.9.7.2.{ M & . ",
". X & d ` -.q.e.q.q.q.g.l.z.z.z.z.z.z.z.z.z.l.d.p.k.j.e.e.q.q.q.q.e.*.` n * . . . o * M ' 0.e.e.q.q.q.f.z.z.z.z.z.z.z.z.z.z.l.f.p.k.h.e.q.q.q.q.q.q.=.! m % . . ",
". . X & 2 H J J J J J P U U U U U U U U U U U K K P L J J J J J J J B 1 $ o . . . . O $ m B J K J J J L I U U U U U U U U U U P K P P J J J J J J J B 1 % X . . ",
". . . . . o o O O o o o o o o o o o o o o o o o o o o o o o o o o o o . . . . . . . . . o o o o o o o o o o O O o o o o o o o o . o o o o o o o . o . . X . . . "
};
