/* XPM */
static char *result[] = {
/* columns rows colors chars-per-pixel */
"80 80 134 2 ",
"   c #020203",
".  c #07070B",
"X  c #07090D",
"o  c #0C0C0D",
"O  c #0C0C12",
"+  c #0F0F1B",
"@  c #131414",
"#  c #1B1B16",
"$  c #13151B",
"%  c #14181D",
"&  c #1A1A18",
"*  c #232319",
"=  c #29291C",
"-  c #30301D",
";  c #131421",
":  c #141A24",
">  c #1A1E24",
",  c #171D2A",
"<  c #191E2A",
"1  c #1D1D34",
"2  c #1C2026",
"3  c #1C222C",
"4  c #1E2432",
"5  c #1E2639",
"6  c #1F293C",
"7  c #23252D",
"8  c #373720",
"9  c #202734",
"0  c #212836",
"q  c #282C34",
"w  c #21253B",
"e  c #232B3B",
"r  c #2E3036",
"t  c #27303F",
"y  c #2C303B",
"u  c #34353A",
"i  c #424220",
"p  c #4F4F25",
"a  c #515120",
"s  c #5E5E28",
"d  c #6F6F22",
"f  c #252643",
"g  c #252C43",
"h  c #292B46",
"j  c #2A2C4A",
"k  c #263144",
"l  c #293344",
"z  c #263248",
"x  c #2B354A",
"c  c #2E394D",
"v  c #363841",
"b  c #3A3C45",
"n  c #313B4D",
"m  c #3A3F4B",
"M  c #2E2E52",
"N  c #2E3555",
"B  c #2E3B50",
"V  c #2F3758",
"C  c #303256",
"Z  c #323E52",
"A  c #35355F",
"S  c #323A5B",
"D  c #353660",
"F  c #373964",
"G  c #383A66",
"H  c #393D6A",
"J  c #3B404D",
"K  c #364156",
"L  c #3B4557",
"P  c #374258",
"I  c #3A465C",
"U  c #3B485E",
"Y  c #384167",
"T  c #3E4B62",
"R  c #3B416E",
"E  c #3E4574",
"W  c #3E4875",
"Q  c #3F4A78",
"!  c #42454F",
"~  c #434955",
"^  c #4E4E54",
"/  c #424B5D",
"(  c #635F5F",
")  c #414E65",
"_  c #4C5464",
"`  c #44536D",
"'  c #404877",
"]  c #424C7D",
"[  c #475671",
"{  c #485771",
"}  c #495975",
"|  c #4D5D7B",
" . c #5E616B",
".. c #5C6476",
"X. c #51617E",
"o. c #656264",
"O. c #686567",
"+. c #61636E",
"@. c #636671",
"#. c #656874",
"$. c #656B7C",
"%. c #6F717D",
"&. c #8B8B24",
"*. c #ACAC21",
"=. c #C6C61D",
"-. c #C8C81B",
";. c #D5D51B",
":. c #FEFE04",
">. c #F6F60D",
",. c #F9F909",
"<. c #E4E415",
"1. c #E9E912",
"2. c #536585",
"3. c #57698A",
"4. c #596C8D",
"5. c #5C7096",
"6. c #717483",
"7. c #757884",
"8. c #7D7F8C",
"9. c #607497",
"0. c #61769B",
"q. c #63789E",
"w. c #6A80A7",
"e. c #6E84AB",
"r. c #848287",
"t. c #888486",
"y. c #8F8B8E",
"u. c #898893",
"i. c #868A9C",
"p. c #8B8E9D",
"a. c #9A9594",
"s. c #929198",
"d. c #9095A7",
"f. c #999BA8",
/* pixels */
"] ] ] ] ] ] ] ] ] 2.] ] ] ] ] ] ] ] ] ] ] ] ] ] ] ] ] ] ] ] ] ] ] ] ] ] ] ] ] ] ] ] ] ] ] ] ] ] ] ] ] ] ] ] ] ] ] ] ] ] ] ] ] ] ] ] ] ] ] ] ] ] ] ] ] ] ] ] ] ] ",
"] ] ] ] ] ] ] ] ] E ] ] ] ] ] ] ] ] ] ] ] ] ] ] ] ] ] ] ] ] ] ] ] ] ] ] ] ] ] ] ] ] ] ] ] ] ] ] ] ] ] ] ] ] ] ] ] ] ] ] ] ] ] ] ] ] ] ] ] ] ] ] ] ] ] ] ] ] ] ] ",
"] ] ] ] ] ] Q E ] ] ] ] ] ] ] ] ] ] ] ] ] ] ] ] ] ] ] ] ] ] ] ] ] ] ] ] ] ] ] ] ] ] ] ] ] ] ] ] ] ] ] ] ] ] ] ] ] ] ] ] ] ] ] ] ] ] ] ] ] ] ] ] ] ] ] ] ] ] ] ] ",
"] ] ] ] ] ] Q 2.] ] ] ] ] ] ] ] ] ] ] ] ] ] ] ] ] ] ] ] ] ] ] ] ] ] ] ] ] ] ] ] ] ] ] ] ] ] ] ] ] ] ] ] ] ] ] ] ] ] ] ] ] ] ] ] ] ] ] ] ] ] ] ] ] ] ] ] ] ] ] ] ",
"] ] ] ] ] ] ] ] ] ] ] ] ] ] ] ] ] ] ] ] ] ] ] ] ] ] ] ] ] ] ] ] ] ] ] ] ] ] ] ] Q E E E E E Q E Q Q E Q E Q E E E E E E Q E E Q E ] E E E E E E ] ] ] ] ] ] ] ] ",
"] ] ] ] ] ] ] ] ] ] ] ] ] ] ] ] ] ] ] ] ] ] ] ] ] ] ] ] ] ] ] ] ] ] ] ] ] ] ] ] H G G G G G G G G G D G G G G D G G G G H G G G D D D G G G G D G E ] ] ] ] ] ] ",
"] ] ] ] ] ] ] ] ] ] ] ] ] ] ] ] ] ] ] ] ] ] ] ] ] ] ] ] ] ] ] ] ] ] ] ] ] ] ] E D A A A A A A A A A A A A A A A A A A A A A A A A A D D D D A A D H E ] ] ] ] ] ",
"] ] ] ] ] ] ] ] ] ] ] ] ] ] ] ] ] ] ] ] ] ] ] ] ] ] ] ] ] ] ] ] ] ] ] ] ] Q H G A A A A A A A A A A A A A A A A A A A A A A A A A A A D D D A A D D G E ] ] ] ] ",
"] ] ] ] ] ] ] ] ] ] ] ] ] ] ] ] ] ] ] ] ] ] ] ] ] ] ] ] ] ] ] ] ] ] ] ] ] Q H A A A A A A A A A A A A A D A A A A A A A A A A A A A A A A A A D D D D ] ] ] ] ] ",
"] ] ] ] ] ] ] ] ] ] ] ] ] ] ] ] ] ] ] ] ] ] ] ] ] ] ] ] ] ] ] ] ] ] ] ] ] Q H A A A A A A A A A A A D A A A A A A A A A A A A A A A A A A A A A D D H E ] ] ] ] ",
"] ] ] ] ] ] ] ] ] ] ] ] ] ] ] ] ] ] ] ] ] ] ] ] ] ] ] ] ] ] ] ] ] ] ] ] ] E G A A A A A A A A A A A A A A A A A A A A A A A A A A A A A A A A A D A H ] ] ] ] ] ",
"] ] ] ] ] ] ] ] ] ] ] ] ] ] ] ] ] ] ] ] ] ] ] ] ] ] ] ] ] ] ] ] ] ] ] ] ] ] H A A A A A A A A A A A A A A A A A A A A A A A A A A A A A A A A A A A H ] ] ] ] ] ",
"] ] ] ] ] ] ] ] ] ] ] ] ] ] ] ] ] ] ] ] ] ] ] ] ] ] ] ] ] ] ] ] ] ] ] ] ] Q G D A A A A A A A A A A D A A A A A A A A A A A A A A A A A A A A A A A G E ] ] ] ] ",
"] ] ] ] ] ] ] ] ] ] ] ] ] ] ] ] ] ] ] ] ] ] ] ] ] ] ] ] ] ] ] ] ] ] ] ] ] Q H A A A A A A A A A A A A A A A A A A A A A A A A A A A A A A A A A A A G ] ] ] ] ] ",
"] ] ] ] ] ] ] ] ] ] ] ] ] ] ] ] ] ] ] ] ] ] ] ] ] ] ] ] ] ] ] ] ] ] ] ] ] ] H A A A A A A A A A A A A A A A A A A A A A A A A A A A A D A A A A A D G ] ] ] ] ] ",
"] ] ] ] ] ] ] ] ] ] ] ] ] ] ] ] ] ] ] ] ] ] ] ] ] ] ] ] ] ] ] ] ] ] ] ] ] Q H A A A A A A A A A A A A A A A A A A A A A A A A A A A A A A A A A A D H E ] ] ] ] ",
"] ] ] ] ] ] ] ] ] ] ] ] ] ] ] ] ] ] ] ] ] ] ] ] ] ] ] ] ] ] ] ] ] ] ] ] ] ' G A D A A A A A A A D A A A A A A A A A A A A A A A A D A A A A A A A A G ] ] ] ] ] ",
"] ] ] ] ] ] ] ] ] ] ] ] ] ] ] ] ] ] ] ] ] ] ] ] ] ] ] ] ] ] ] ] ] ] ] ] ] ] H A A A A A A A A D A A A A A A A A A A A A A A A A A A A A A A A A A A G E ] ] ] ] ",
"] ] ] ] ] ] ] ] ] ] ] ] ] ] ] ] ] ] ] ] ] ] ] ] ] ] ] ] ] ] ] ] ] ] ] ] ] ' G D A A A A A A A A A D A A A A A A A A A D A A A A A A A A A A A A D D G ] ] ] ] ] ",
"] ] ] ] ] ] ] ] ] ] ] ] ] ] ] ] ] ] ] ] ] ] ] ] ] ] ] ] ] ] ] ] ] ] ] ] ] ' H A A A C w w w t w f A A A A A A A A A A A A A A A A A A A A A A A A D D ] ] ] ] ] ",
"] ] ] ] ] ] ] ] ] ] ] ] ] ] ] ] ] ] ] ] ] ] ] ] ] ] ] ] ] ] ] ] ] ] ] ] ] W G D A h 1 L I I Z Z M j A A A A A A A A A A A A A A D A A A A A A D A D H E ] ] ] ] ",
"] ] ] ] ] ] ] ] ] ] ] ] ] ] ] ] ] ] ] ] ] ] ] ] ] ] ] ] ] ] ] ] ] ] ] ] ] ] E G 1 l I T I I 1 , R f A A A A A A A A A D A A A D D D A A A A A D D G R ] ] ] ] ] ",
"] ] ] ] ] ] ] ] ] ] ] ] ] ] ] ] ] ] ] ] ] ] ] ] ] ] ] ] ] ] ] ] ] ] ] ] ] ] R w Z I ) ) I Z , [ 2.j F D F D D D D F D D F D D F D D D D D D G G G E ] ] ] ] ] ] ",
"] ] ] ] ] ] ] ] ] ] ] ] ] ] ] ] ] ] ] ] ] ] ] ] ] ] ] ] ] ] ] ] ] ] ] ] ] R 0 Z ) ) T P Z Z w x j G E E E E E E E E E E E ' H ' E E E E E E E ] E ] ] ] ] ] ] ] ",
"] ] ] ] ] ] ] ] ] ] ] ] ] ] ] ] ] ] ] ] ] ] ] ] ] ] ] ] ] ] ] ] 2.H ] ] R 5 Z I T T T P Z B e ] ] ] ] ] ] ] ] ] ] ] ] ] ] ] ] ] ] ] ] ] ] ] ] ] ] ] ] ] ] ] ] ] ",
"] ] ] ] ] ] ] ] ] ] ] ] ] ] ] Q ] ] ] ] Q ] ] ] ] Q ] ] ] ] ] Q Q ] Q E 5 B P T ` T T P Z x e ] ] ] ] ] ] ] ] ] ] ] ] ] ] ] ] ] ] ] ] ] ] ] 2.] ] ] ] ] ] ] ] ] ",
"] ] ] ] ] ] ] ] ] ] ] ] ] E R H R R E R R R R H R R H R H E H H H H H 5 l B I T T T T P Z x 0 W ] ] ] ] ] ] ] ] ] ] ] ] ] ] ] ] ] ] ] ] ] ] ] ] ] ] ] ] ] ] ] ] ",
"] ] ] ] ] ] ] ] ] ] ] ] Q H D D D D D D D D D D D D D D D D D A G D f g c T [ | [ T T P n l e R ] ] ] ] ] ] ] ] ] ] ] ] ] ] ] ] ] ] ] ] ] ] ] ] ] ] ] ] ] ] ] ] ",
"] ] ] ] ] ] ] ] ] ] ] E H G A A D D A A A A A A D A D D D D A A A f < e Z [ | X.} T T P c z f C E ] ] ] ] ] ] ] ] ] ] ] ] ] ] ] ] ] ] ] ] ] ] ] ] ] ] ] ] ] ] ] ",
"] ] ] ] ] ] ] ] ] ] ] R D D A A D D A A A A A A A A D D A A A A 5 < , : 0 m m L [ [ T P B j 6 M E ] ] ] ] ] ] ] ] ] ] ] ] ] ] ] ] ] ] ] ] ] ] ] ] ] ] ] ] ] ] ] ",
"] ] ] ] ] ] ] 2.] ] ] E D D D A A A A A A A A A A A A D A A M 1 < : : 7 b q y 9 : < 4 4 3 3 , f E ] ] ] ] ] ] ' ] 2.] ] ] ] ] ] ] ] ] ] ] ] ] ] ] ] ] ] ] ] ] ] ",
"] ] ] ] ] ] ] ] ] ] ] E D D D D A A A A A A A D M j f f f f 1 , : , : u b 7 < 3 3 3 , , : : 1 1 E ] ] ] ] ] ] E 2.H ] ] ] ] ] ] ] ] ] ] ] ] ] ] ] ] ] ] ] ] ] ] ",
"] ] ] ] ] ] ] ] ] ] ] E D A A A A A A A A A A A 7 g e e g l l x e 3 : ! r > < < 3 3 , : : : 3 , F Q 2.E ] ] ] E Q Q ] ] ] ] ] ] ] ] ] ] ] ] ] ] ] ] ] ] ] ] ] ] ",
"] ] ] ] ] ] ] ] ] ] ] R D A A A A A A A A A A A j 9 l n Z Z I ) ` [ [ n m m v : 2 2 , : ; ; : 2 6 Q ] Q ] ] ] 2.] ] ] ] ] ] ] ] ] ] ] ] ] ] ] ] ] ] ] ] ] ] ] ] ",
"] ] ] ] ] ] ] ] ] ] ] R D D A D A A A A A A A A D A f w l I [ | 2.2.2.3.4.2.} | { U K c z 6 t 6 5 4 M R Q ] ] ] ] ] ] ] ] ] ] ] ] ] ] ] ] ] ] ] ] ] ] ] ] ] ] ] ",
"] ] ] ] ] ] ] ] ] ] ] R D A A A A A A A A A A A A D D D C $ @ 9 Z [ 4.0.q.9.5.4.2.| { ` T T B l 6 5 4 4 e V Q ] ] ] ] ] ] ] ] ] ] ] ] ] ] ] ] ] ] ] ] ] ] ] ] ] ",
"] ] ] ] ] ] ] ] ] ] ] R D D A A A A A A A A A A A A A A A o @ @ @ @ $ 3 l U ` } { U ` ` T U P c l t e 0 4 0 G ] ] ] ] ] ] ] ] ] ] ] ] ] ] ] ] ] ] ] ] ] ] ] ] ] ",
"] ] ] ] ] ] ] ] ] ] ] R D A A A D A A A A A A A A A A A C o @ @ a i @ & # @ # @ @ o % 3 2 2 t t 6 4 5 e x S Q ] ] ] ] ] ] ] ] ] ] ] ] ] ] ] ] ] ] ] ] ] ] ] ] ] ",
"] ] ] ] ] ] ] ] ] ] ] E D D A A A A A A A A A A A A A A M . @ = 1.=.& & # = -.*.# @ o o X       5 ] ] ] ] ] ] ] ] ] ] ] ] ] ] ] ] ] ] ] ] ] ] ] ] ] ] ] ] ] ] ] ",
"] ] ] ] ] ] ] ] ] ] ] R D A A A A A A A A A D A A A A A M . @ 8 ,.;.& & # s :.>.- @ o o X .     e ] ] ] ] ] ] ] ] ] ] ] ] ] ] ] ] ] ] ] ] ] ] ] ] ] ] ] ] ] ] ] ",
"] ] ] ] ] ] ] ] ] ] ] H G A A A A A A A A A A A A A A A C o @ # -.&.@ & & p :.<.* @ o X X   . o 5 E ] ] ] ] ] ] ] ] ] ] ] ] ] ] ] ] ] ] ] ] ] ] ] ] ] ] ] ] ] ] ",
"] ] ] ] ] ] ] ] ] ] ] E D A A A A A A A A A A A A A A A h 9 @ @ * # @ & @ # d a @ @ o @ 3 t y t f H ] ] ] ] ] ] ] ] ] ] ] ] ] ] ] ] ] ] ] ] ] ] ] ] ] ] ] ] ] ] ",
"] ] ] ] ] ] ] ] ] ] ] R G D D A A A A A D A A A A A A A j n ~ o.^ @ @ & # @ u ( o.^ ~ L J l t t 5 ] ] ] ] ] ] ] ] ] ] ] ] ] ] ] ] ] ] ] ] ] ] ] ] ] ] ] ] ] ] ] ",
"] ] ] ] ] ] ] ] ] ] ] ] R G A A A A A A A A A A A A A A C y Z  .t.~ @ @ @ r +.a.#.I K n c l t t N ] ] ] ] ] ] ] ] ] ] ] ] ] ] ] ] ] ] ] ] ] ] ] ] ] ] ] ] ] ] ] ",
"] ] ] ] ] ] ] ] ] ] ] ] ] H G G G G G G F G G G G G G G F e c L t.@.@ @ o ~ r.u./ L Z c x l t 4 E ] ] ] ] ] ] ] ] ] ] ] ] ] ] ] ] ] ] ] ] ] ] ] ] ] ] ] ] ] ] ] ",
"] ] ] ] ] ] ] ] ] ] ] ] ] ] E ] E ] E E ' ' ' ' ' ' ] W ' l x J 8.7.7 o & ) s.%.K K n c x l t 4 E ] ] ] ] ] ] ] ] ] ] ] ] 2.] ] ] ] ] ] ] ] ] ] ] ] ] ] ] ] ] ] ",
"] ] ] ] ] ] ] ] ] ] ] ] ] ] ] ] ] ] ] ] ] ] 2.H ] ] ] ] ] e l c $.p.x . n 6.f._ Z K B c l e e 6 V ] ] ] ] ] ] ] ] ] ] ] ] ] ] ] ] ] ] ] ] ] ] ] ] ] ] ] ] ] ] 2.",
"] ] ] ] ] ] ] ] ] ] ] ] ] ] ] ] ] ] ] ] ] ] E 2.] ] ] ] Y y l c L p.#.> / d.i.Z Z c c k k e e 6 6 ] ] ] ] ] ] ] ] ] ] ] ] ] ] ] ] ] ] ] ] ] ] ] ] ] ] ] ] ] ] ] ",
"] ] ] ] ] ] ] ] ] ] ] ] ] ] ] ] ] ] ] ] ] ] ] ] ] ] ] ] x t l c K  .y.t  .f...c K z z K k t 6 6 5 F ] ] ] ] ] ] ] ] ] ] ] ] ] ] ] ] ] ] ] ] ] ] ] ] ] ] ] ] ] ] ",
"] ] ] ] ] ] ] ] ] ] ] ] ] ] ] ] ] ] ] ] ] ] ] ] ] ] ] ] t t l c z J O.J 7.e.K K z K z z z k e 6 6 6 ] ] ] ] ] ] ] ] ] ] ] ] ] ] ] ] ] ] ] ] ] ] ] ] ] ] ] ] ] ] ",
"] ] ] ] ] ] ] ] ] ] ] ] ] ] ] ] ] ] ] ] ] ] ] ] ] ] ] Y t k z c z z q L e.O.K z K z z z k 6 6 6 5 5 F Q ] ] ] ] ] ] ] ] ] ] ] ] ] ] ] ] ] ] ] ] ] ] ] ] ] ] ] ] ",
"] ] ] ] ] ] ] ] ] ] ] ] ] ] 2.] ] ] ] ] ] ] ] ] ] ] Q K t t l z z 6 t _ y. .z K z z z z k k 6 5 , , Y Q ] ] ] ] ] ] ] ] ] ] ] ] ] ] ] ] ] ] ] ] ] ] ] ] ] ] ] ] ",
"] ] ] ] ] ] ] ] ] ] ] ] ] ] ] ] ] ] ] ] ] ] ] ] ] ] ] Y 5 , 4 e e , K  .w.! u z z k 6 6 4 3 ; % : V ] ] ] ] ] ] ] ] ] ] ] ] ] ] ] ] ] ] ] ] ] ] ] ] ] ] ] ] ] ] ",
"] ] ] ] ] ] ] ] ] ] ] ] ] ] ] ] ] ] ] ] ] ] ] ] ] ] ] ] Y % $ $ % X 2 u b 9 2 > , : : % $ 2 3 3 , 4 Q ] ] ] ] ] ] ] ] ] ] ] ] ] ] ] ] ] ] ] ] ] ] ] ] ] ] ] ] ] ",
"] ] ] ] ] ] ] ] ] ] ] ] ] ] ] ] ] ] ] ] ] ] ] ] ] ] ] ] V : 2 : 2 2 2 2 2 2 2 2 2 2 3 3 3 3 3 2 3 3 N Q ] ] ] ] ] ] ] ] ] ] ] ] ] ] ] ] ] ] ] ] ] ] ] ] ] ] ] ] ",
"] ] ] ] ] ] ] ] ] ] ] ] ] ] ] ] ] ] ] ] ] ] ] ] ] ] ] ] z 3 2 2 2 2 2 2 2 7 3 3 9 9 9 3 3 3 3 3 3 , 4 Q ] ] ] ] ] ] ] ] ] ] ] ] ] ] ] ] ] ] ] ] ] ] ] ] ] ] ] ] ",
"] ] ] ] ] ] ] ] ] ] ] ] ] ] ] ] ] ] ] ] ] ] ] ] ] ] ] ] t 3 2 2 2 3 2 3 9 3 9 9 4 0 0 0 4 4 4 3 3 3 3 V ] ] ] ] ] ] ] ] ] ] ] ] ] ] ] ] ] ] ] ] 2.] ] ] ] ] ] ] ",
"] ] ] ] ] ] ] ] ] ] ] ] ] ] ] ] ] ] ] ] ] ] ] ] ] ] ] ] 6 , , 3 3 3 7 3 7 9 9 0 q 0 0 4 4 7 7 3 3 3 3 4 Q ] ] ] ] ] ] ] ] ] ] ] ] ] ] ] ] ] ] ] H ] ] ] ] ] ] ] ",
"] ] ] ] ] ] ] ] ] ] ] ] ] ] ] ] ] ] ] ] ] ] ] ] ] ] ] ] 4 2 , 3 3 4 4 4 7 7 9 0 0 e 0 5 0 4 0 4 3 4 3 4 C ] ] ] ] ] ] ] ] Q ] ] ] ] ] 2.] ] ] ] ] ] ] ] ] ] ] ] ",
"] ] ] ] ] ] ] ] ] ] ] ] ] ] ] ] ] ] ] ] ] ] ] ] ] ] ] Q 3 4 3 3 3 4 9 0 0 9 0 0 0 0 0 e e 0 6 4 4 4 0 0 4 E W W Q Q Q Q E Q E Q E Q H H E Q E E ] H ' ] ] ] ] ] ",
"] ] ] ] ] ] ] ] ] ] ] ] ] ] ] ] ] ] ] ] ] ] ] ] ] ] ] Q , 9 9 , 3 3 9 9 6 0 e e 0 0 e 0 0 5 5 e k t y t 4 j G G F F F F G F F F D G D G G D G D H G H Q ] ] ] ] ",
"] ] ] ] ] ] ] ] ] ] ] ] ] ] ] ] ] ] ] ] ] ] ] ] ] ] ] Q 9 0 9 9 9 4 3 9 0 0 e 0 e e 0 e l Z P K c x t 0 5 1 A A D A D D D D D D A A D D D D D A D D G H W ] ] ] ",
"] ] ] ] ] ] ] ] ] ] ] ] ] ] ] ] ] ] ] ] ] ] ] ] ] ] ] Q 0 t t J K t t t 6 9 t J P T ` ` ` T U P c e e e , f A A A A A A A A D D A A A A D D A A A A D D H ] ] ] ",
"] ] ] ] ] ] ] ] ] ] ] ] ] ] ] ] ] ] ] ] ] ] ] ] ] ] Q Q 9 6 K K T } 4.w.w.w.w.w.5.2.| } [ T K l k g 3 4 M A A A D A A A A A A D A A A D D D A A A A D D H ] ] ] ",
"] ] ] ] ] ] ] ] ] ] ] ] ] ] ] ] ] ] ] ] ] ] ] ] ] ] ] ] f f f V T } 4.w.e.e.w.5.4.| T P l k k w ; 1 M D D A A A A A A A A A A A A A A A A A A A A A A A H ] ] ] ",
"] ] ] ] ] ] ] ] ] ] ] ] ] ] ] ] ] ] ] ] ] ] ] ] ] ] ] ] A 1 6 f k z z B B K c x l z l l g 4 4 f C A A A A A A A A A D A A A A A A A A A A A A A A A A D H ] ] ] ",
"] ] ] ] ] ] ] ] ] ] ] ] ] ] ] ] ] ] ] ] ] ] ] ] ] ] ] ] ] H f 1 , 6 j j z z l k 6 4 4 O   + D A D A A A A A A A A A A A A A A A A D A A A A A A A A A A H ] ] ] ",
"] ] ] ] ] ] ] ] ] ] ] ] ] ] ] ] ] ] ] ] ] ] ] ] ] ] ] ] ] ] ] ] R M j j z j g X     g O   . A A D A A A A A A A A A A A A A A A A A A A A A A A A A A A H ] ] ] ",
"] ] ] ] ] ] ] ] ] ] ] ] ] ] ] ] ] ] ] ] ] ] ] ] ] ] ] ] ] ] ] ] ] ] ] ] ] ] ] G +   . ;     C A A A A A A A A A A A A A A A A A A A A A A A A A A A A A H ] ] ] ",
"] ] ] ] ] ] ] ] ] ] ] ] ] ] ] ] ] ] ] ] ] ] ] ] ] ] ] ] ] ] ] ] ] ] ] ] ] ] ] Q D 5 . ,     M D A A A A A A A A A A A A A A A A A A A A A D A A A A A A H ] ] ] ",
"] ] ] ] ] ] ] ] ] ] ] ] ] ] ] ] ] ] ] ] ] ] ] ] ] ] ] ] ] ] ] ] ] ] ] ] ] ] Q H G A C C     f D A A A A A A A D A A A A A A A A D A A A A A A A A A A A H ] ] ] ",
"] ] ] ] ] ] ] ] ] ] ] ] ] ] ] ] ] ] ] ] ] ] ] ] ] ] ] ] ] ] ] ] ] ] ] ] ] ] 2.H G D D D ;   j D A A A A A A A A A A D A A A A A A A A A A A A A A A A A H ] ] ] ",
"] ] ] ] ] ] ] ] ] ] ] ] ] ] ] ] ] ] ] ] ] ] ] ] ] ] ] ] ] ] ] ] ] ] ] ] ] ] ] Q F A A A f   M A A D A A A A A A A A A A A A A A A A A A A A A A A A A A H ] ] ] ",
"] ] ] ] ] ] ] ] ] ] ] ] ] ] ] ] ] ] ] ] ] ] ] ] ] ] ] ] ] ] ] ] ] ] ] ] ] ] ] Q F A A A D j A A A A A A A A A A A A A A A A A A A A A A A A A A D A A A H ] ] ] ",
"] ] ] ] ] ] ] ] ] ] ] ] ] ] ] ] ] ] ] ] ] ] ] ] ] ] ] ] ] ] ] ] ] ] ] ] ] ] ] Q F D A A D D A A A A A A A A A A A A A A A A A A A A A A A A A A A A A A H ] ] ] ",
"] ] ] ] ] ] ] ] ] ] ] ] ] ] ] ] ] ] ] ] ] ] ] ] ] ] ] ] ] ] ] ] ] ] ] ] ] ] ] Q F D A D D D A A A A A A A A A A A A D A A A A A A A A A A A A A A A A A H ] ] ] ",
"] ] ] ] ] ] ] ] ] ] ] ] ] ] ] ] ] ] ] ] ] ] ] ] ] ] ] ] ] ] ] ] ] ] ] ] ] ] ] Q H H F D A A A A A A A A A A A A A A A A A A A A A A A A A A A A A A D H ' ] ] ] ",
"] ] ] ] ] ] ] ] ] ] ] ] ] ] ] ] ] ] ] ] ] ] ] ] ] ] ] ] ] ] ] ] ] ] ] ] ] ] ] ] Q H F F F F F F D G G D F F G D D G G D F G F D D G D D F G D D F G H ' ] ] ] ] ",
"] ] ] ] ] ] ] ] ] ] ] 2.] ] ] ] ] ] ] ] ] ] ] ] ] ] ] ] ] ] ] ] ] ] ] ] ] ] ] ] ] E E E Q E Q ] W E E E E E E E W E E E E E E E ' ' ' ' ' E E E ' E ' ' ] ] ] ] ",
"] ] ] ] ] ] ] ] ] ] ] ] ] ] ] ] ] ] ] ] ] ] ] ] ] ] ] ] ] ] ] ] ] ] ] ] ] ] ] ] ] ] ] ] ] ] ] ] ] ] ] ] ] ] ] ] ] ] ] ] ] ] ] ] ] ] ' ] ] ] ] ] ] ] ] ] ] ] ] ] "
};
