/* XPM */
static char *result[] = {
/* columns rows colors chars-per-pixel */
"80 80 135 2 ",
"   c #020203",
".  c #060609",
"X  c #07090C",
"o  c #0C0C0D",
"O  c #0C0E14",
"+  c #0D0F19",
"@  c #0D1016",
"#  c #131414",
"$  c #1B1B16",
"%  c #13151A",
"&  c #14181D",
"*  c #1A1A18",
"=  c #232319",
"-  c #29291C",
";  c #30301D",
":  c #131623",
">  c #141A24",
",  c #1A1E24",
"<  c #171C2A",
"1  c #191F2B",
"2  c #1E1E35",
"3  c #1C2026",
"4  c #1C222C",
"5  c #1E2432",
"6  c #1E2438",
"7  c #1F293C",
"8  c #23252D",
"9  c #202734",
"0  c #212836",
"q  c #282C34",
"w  c #21253A",
"e  c #232B3B",
"r  c #2E3036",
"t  c #27303F",
"y  c #2C303B",
"u  c #34353A",
"i  c #424220",
"p  c #4F4F25",
"a  c #515120",
"s  c #5E5E28",
"d  c #6F6F22",
"f  c #262645",
"g  c #242C42",
"h  c #292C47",
"j  c #272B48",
"k  c #2B2D4C",
"l  c #263144",
"z  c #293344",
"x  c #263248",
"c  c #2B354A",
"v  c #2E394D",
"b  c #3A3C45",
"n  c #313B4D",
"m  c #3A3F4B",
"M  c #2D2E51",
"N  c #2E3555",
"B  c #2E3B50",
"V  c #2F3758",
"C  c #2F385B",
"Z  c #303256",
"A  c #323D52",
"S  c #35355F",
"D  c #313A5C",
"F  c #353660",
"G  c #373964",
"H  c #383A66",
"J  c #393D6A",
"K  c #3B404D",
"L  c #364156",
"P  c #3B4557",
"I  c #374258",
"U  c #3A465C",
"Y  c #3B485E",
"T  c #384167",
"R  c #3E4B62",
"E  c #3B416E",
"W  c #3E4574",
"Q  c #3E4877",
"!  c #3F4978",
"~  c #42454F",
"^  c #434955",
"/  c #4E4E54",
"(  c #424B5D",
")  c #635F5F",
"_  c #414E65",
"`  c #4C5464",
"'  c #44536D",
"]  c #555B6C",
"[  c #404877",
"{  c #424C7D",
"}  c #475671",
"|  c #485771",
" . c #495974",
".. c #4D5D7B",
"X. c #5E616B",
"o. c #51617E",
"O. c #656264",
"+. c #636671",
"@. c #656874",
"#. c #656B7C",
"$. c #6F717D",
"%. c #8B8B24",
"&. c #ACAC21",
"*. c #C6C61D",
"=. c #C8C81B",
"-. c #D5D51B",
";. c #FEFE04",
":. c #F6F60D",
">. c #F9F909",
",. c #E4E415",
"<. c #E9E912",
"1. c #536584",
"2. c #57698A",
"3. c #596C8D",
"4. c #5C6F92",
"5. c #5C7096",
"6. c #6F7586",
"7. c #757884",
"8. c #7D7F8C",
"9. c #607497",
"0. c #61769B",
"q. c #63789E",
"w. c #6A80A7",
"e. c #6E84AB",
"r. c #848287",
"t. c #888486",
"y. c #8F8B8E",
"u. c #858693",
"i. c #898893",
"p. c #868A9C",
"a. c #8B8E9D",
"s. c #938E90",
"d. c #9A9594",
"f. c #929198",
"g. c #999BA8",
/* pixels */
"{ { { { { { { { { { { { { { { { { { { { { { { { { { { { { { { { { { { { { { { { { { { { { { { { { { { { { { { { { { { { { { { { { { { { { { { { { { { { { { { { ",
"{ { { { { { { { { { { { { { { { { { { { { { { { { { { { { { { { { { { { { { { { { { { { { { { { { { { { { { { { { { { { { { { { { { { { { { { { { { { { { { { { ",
"{ { { { { { ! Q { { { { { { { { { { { { { { { { { { { { { { { { { { { { { { { { { { { { { { { { { { { { { { { { { { { { { { { { { { { { { { { { { { { { { { { { ",
"{ { { { { { { 1.{ { { { { { { { { { { { { { { { { { { { { { { { { { { { { { { { { { { { { { { { { { { { { { { { { { { { { { { { { { { { { { { { { { { { { { { { ",
"{ { { { { { { { Q Q { { { { { { { { { { { { { { { { { { { { { { { { { { { { { { W W { W W Q Q Q { W Q W W Q W W Q W W W { W W Q W W W W { W W W { { { { { { { { ",
"{ { { { { { { { { 1.{ { { { { { { { { { { { { { { { { { { { { { { { { { { { { { H H H F H H F H H H H F H H F H H H H H H H H H H H H H F H H H H W W { { { { { ",
"{ { { { { { { { { { { { { { { { { { { { { { { { { { { { { { { { { { { { { { { E F F S S S S S S F S S S F S S S S S S S S S F S S S S S S S S S F J W { { { { { ",
"{ { { { { { { { { { { { { { { { { { { { { { { { { { { { { { { { { { { { { Q J H S S S S S S S S F F S S F S S S S S S S S S S S S S S S S S S S S S H { { { { { ",
"{ { { { { { { { { { { { { { { { { { { { { { { { { { { { { { { { { { { { { Q J S S S S F S S S S S S S S S S S S S S S S S S S S S S S S S S S S S S H { { { { { ",
"{ { { { { { { { { { { { { { { { { { { { { { { { { { { { { { { { { { { { { Q J F S S S S S S S S S S S S S S S S S S S S S S S S S S S S S S S S S F H W { { { { ",
"{ { { { { { { { { { { { { { { { { { { { { { { { { { { { { { { { { { { { { Q J S S S S S S S S S S F S S S S S S S S S S S S S S S S S S S S S S S S J { { { { { ",
"{ { { { { { { { { { { { { { { { { { { { { { { { { { { { { { { { { { { { { Q H S S S S S S S S S S S S S S S S S S S S S S S S S S S S S S S S S S S H { { { { { ",
"{ { { { { { { { { { { { { { { { { { { { { { { { { { { { { { { { { { { { { Q J S S S S S S S S S S S S S S S S S S S S S S S S S F S S S S S S S S S H { { { { { ",
"{ { { { { { { { { { { { { { { { { { { { { { { { { { { { { { { { { { { { { { J S S S S S S S S S S S S S S S S F S S S S S S S S S S S S S S S S S S H W { { { { ",
"{ { { { { { { { { { { { { { { { { { { { { { { { { { { { { { { { { { { { { { J S S S S S S S S S S S S S S S S S S S S S S S S S S S S S S S S S F F J { { { { { ",
"{ { { { { { { { { { { { { { { { { { { { { { { { { { { { { { { { { { { { { Q J S S S S S S S S S S S S S S S S S S S S S F S S S S S S S S S S S S F H W { { { { ",
"{ { { { { { { { { { { { { { { { { { { { { { { { { { { { { { { { { { { { { [ J F S S S S S S S F S S S S S S S S S S S S S S S S S S S S S S S S S S H Q { { { { ",
"{ { { { { { { { { { { { { { { { { { { { { { { { { { { { { { { { { { { { { [ J F S S S S S S S S S S S S S F S S S S S S S S F S S S S S S S S S S S J Q { { { { ",
"{ { { { { { { { { { { { { { { { { { { { { { { { { { { { { { { { D h h e g k F F S S S S S S S S S S S S S S S S S S S S S S S S S S S S S S S S S F H { { { { { ",
"{ { { { { { { { { { { { { { { { { { { { { { { { { { { { { { { H z L A U Y A 9 f S S S S S S S S S S S S S S S S S S S S S S S S S S S S S S S S S F J W { { { { ",
"{ { { { { { { { { { { { { { { { { { { { { { { { { { { { { { { M _ 4 e I Y Y Y z 2 S S S F F F S S S S S S S S S S S S S S S S S S S S S S F S F S F H W { { { { ",
"{ { { { { { { { { { { { { { { { { { { { { { { { { { { { { { { S o. .2 L I _ _ Y A 2 M S F F F F S S S S S S S S S S S S S S S S S S S S S S S F F H W { { { { { ",
"{ { { { { { { { { { { { { { { { { { { { { { { { { { { { { { { E v v 7 A I U R _ ( D 5 Z F F F F H H H H H H H F F H F H F F F H H H H H F F H H H W { { { { { { ",
"{ { { { { { { { { { { { { { { { { { { { { { { { { { { { { { { { { { t c A I Y R _ U A 9 H W W W J W J W J W W W W W E W W W W W E W E E W W Q { W { { { { { { { ",
"{ { { 1.{ { { { { { { { { { { { { { { { { { { { { { { { { { { { { { e c A I R R ' R L B 0 Q { { { { { { { { { { { { { { { { { { { { { { { { { { { { { { { { { { ",
"{ { { { { { { { { { { { { { Q { { { { { { Q { { Q { { { Q { { { ! W 0 c n I U R ' R U B c w Q { { { { { { { { { { { { { { { { { { { { { { { { { { { { { { { { { ",
"{ { { { { { { { { { { { { W E E E E W E E E E E E E E E E E E E J H e z v I R R '  .} U c t g { { { { { { { { { { { { { { { { { { { { { { { { { { { { { { { { { ",
"{ { { { { { { { { { { { Q J F F F S S H F F F F F F S F F F F F F M e c v L R '  .o...} L e 4 c { { ! Q 1.{ { { { { { { { { { { { { { { { { { { { { { { { { { { ",
"{ { { { { { { { { { { Q J H S S S S S S S S S S S S S S S S S S F k 7 x A L R } } P K K 0 > > 4 f ! { { { { { { { { { { { { { { { { { { { { { { { { { { { { { { ",
"{ { { { { { { { { { { E S S S S S S S S S S S F S S S S S S S S F g 4 4 4 5 5 < > 5 y q K 4 > 3 < 2 W { { { { { { { { { { { { { { { { { { { { { { { { { { { { { ",
"{ { { { { { { { { { { E S S S S S S S S S S S S S S S S S S S S F 5 4 > < > 4 1 4 4 < 8 b r > > > > 6 j k Z S S H { { { { { { { { { { { { { { { { { { { { { { { ",
"{ { { { { { { { { { { Q F S S S S S S S S S S S S S F S S S S S M 1 > > : < < 4 4 4 < 3 y ~ : 4 l c z l y h w f f { { { { { { { { { { { { { { { { { { { { { { { ",
"{ { { { { { { { { { { W F S S S S S S S S S S S S S S S F F S S 6 1 < : : > 4 < 3 > u K K m '  .' R Y I A n z 6 T { { { { { { { { { { { { { { { { { { { { { { { ",
"{ { { { { { { { { { { J F S S S S S S S S S S S S S S S S M e 5 6 7 e e t c L Y | o. .1.3.2.1.o.o...} U t l Z { { { { { { { { { { { { { { { { { { { { { { { { { ",
"{ { { { { { { { { { Q J F F S S S S S S S F S S S S S h w 9 9 0 e z A Y _ ' | ..1.3.4.9.q.0.3. .L 0 % < Q { { { { { { { { { { { { { { { { { { { { { { { { { { { ",
"{ { { { { { { { { { 1.J F S S S S S S S S S S S S S k 9 0 9 0 e z v L R _ ' ' Y | | ' Y z 4 % # # # O O { { { { { { { { { { { { { { { { { { { { { { { { { { { 1.",
"{ { { { { { { { { { { W F S F S S S S S S S S S S F S h f 6 5 6 0 q q 8 , 4 & @ # # $ % % $ % i a # o o E { { { { { { { { { { { { { { { { { { { { { { { { { { { ",
"{ { { { { { { { { { { J F S S S S S S S S S S S S S S S S S S S 2     . . o o # * &.=.- $ * * *.<.- # o T { { { { { { { { { { { { { { { { { { { { { { { { { { { ",
"{ { { { { { { { { { { W F F S F S S S S S S S S S S S S S S S S 2     . . o o # ; :.;.s % * = -.>.; # o E { { { { { { { { { { { { { { { { { { { { { { { { { { { ",
"{ { { { { { { { { { { E F S S S S F S S S S S S S S S S S S S Z 5 X . . . o o # = ,.;.p % $ * %.=.= # o [ { { { { { { { { { { { { { { { { { { { { { { { { { { { ",
"{ { { { { { { { { { { J H H S S S S S S S S S S S S S S S S S M e z t e 4 # o @ # a d $ $ $ # $ $ # % 9 C { { { { { { { { { { { { { { { { { { { { { { { { { { { ",
"{ { { { { { { { { { { J F F S S S S S S S S S S S S S S S S S S 6 t z c v K ^ / O.) u # # $ # % / O.^ n C { { { { { { { { { { { { { { { { { { { { { { { { { { { ",
"{ { { { { { { { { { { { H H F S S S S S S S S S S S F F S S S S h y t z v L L U @.d.+.r # # o / t.O.v z Q { { { { { { { { { { { { { { { { { { { { { { { { { { { ",
"{ { { { { { { { { { { J J H S S S S S S S S F S F F F F S S S S Z 0 t z z v L L Y y.t.P o # & @.t.P v f { { { { { { { { { { { { { { { { { { { { { { { { { { { { ",
"{ { { { { { { { { { { { 1.J H H H H H J G J H H J H H H G G G J S 5 e z c v v L P $.f.` & o 4 7.8.n c z 1.Q Q { { { { { { { { { { { { { { { { { { { { { { { { { ",
"{ { { { { { { { { { { { Q [ [ [ [ [ [ [ [ [ [ [ ! ! ! ! ! ! Q ! C 0 7 t z c L L L ` g.6.K X v a.#.v z e ! { { { { { { { { { { { { { { { { { { { { { { { { { { { ",
"{ { 1.{ { { { { { { { { { { { { { { { { { { { { { { { { { { ! { 0 e 7 e l x v v L L w.f.Y 3 X.a.P n c y J ! { { { { { { { { { { { { { { { { { { { { { { { { { { ",
"{ { { { { { { { { { { { { { { { { { { { { { { { { { { { { { ! T 7 0 e l z z v v v L X.g.X.t s.X.c c z z N { { { { { { { { ! Q 1.{ { { { { { { { { { { { { { { { ",
"{ { { { { { { { { { { { { { { { { { { { { { { { { { { { { { { 7 7 7 7 l x x x v v v U p.$.K O.L c c c y e { { { { { { { { { { { { { { { { { { { { { { { { { { { ",
"{ { { { { { { { { { { { { { { { { { { { { { { { { { { { { { G 5 0 7 7 l x x v v v c L #.u.P 0 x c c c z e T { { { { { { { { { { { { { { { { { { { { { { { { { { ",
"{ { { { { { { { { { { { { { { { { { { { { { { { { { { { { { J > 4 7 7 7 l x x v c c v ] i.` t 7 x c z l e x { { { { { { { { { { { { { { 1.{ { { { { { { { { { { ",
"{ { { { { { { { { { { { { { { { { { { { { { { { { { { { { { ! V > & > < 7 7 7 l x x c U r.+.v 3 7 e 5 4 6 H { { { { { { { { { { { { { { { { { { { { { { { { { { ",
"{ { { { { { { { { { { { { { { { { { { { { { { { { { { { { { Q 5 < 3 3 > & & & 3 < > 4 5 b u 3 o & % # % T { { { { { { { { { { { { { { { { { { { { { { { { { { { ",
"{ { { { { { { { { { { { { { { { { { { { { { { { { { { { { { V 1 < 4 4 3 4 3 3 4 4 3 3 3 8 3 , , 3 , 3 > C { { { { { { { { { { { { { { { { { { { { { { { { { { { ",
"{ { { { { { { { { { { { { { { { { { { { { { { { { { { { { { 6 4 4 4 4 4 4 5 5 5 5 4 4 4 3 4 4 3 3 3 > 3 c { { { { { { { { { { { { { { { { { { { { { { { { { { { ",
"{ { { { { { { { { { { { { { { { { { { { { { { { { { { { { C 4 1 4 4 5 4 5 5 q 0 0 5 5 4 5 3 8 3 3 3 3 3 j { { { { { { { { { { { { { { { { { { { { { { { { { { { ",
"{ { { { { { { { { { { { { { { { { { { { { { { { { { { { ! 5 4 4 4 4 4 5 0 0 5 0 0 0 0 8 4 5 5 4 4 1 , 4 w { { { { { { { { { { { { { { { { { { { { { { { { { { { ",
"{ { { { { { { { { { { { { { { { { { { { { { { { { { { { L 4 4 5 5 5 0 5 0 0 0 0 0 0 0 8 8 5 8 5 4 4 4 4 9 { { { { { { { { { { { { { { { { { { { { { { { { { { { ",
"{ { { { { { { { { { { { { { { { { { { { { { { { { { { ! 6 7 5 5 5 0 0 0 0 0 7 0 0 0 0 0 0 0 0 4 4 4 4 4 5 { { { { { { { { { { { { { { { { { { { { { { { { { { { ",
"{ { { { { { { { { { { { { { { { { { { { { { { { { { ! B 5 e t t t e 0 7 0 e 0 e e 0 e 0 e 5 5 5 4 4 5 5 1 W Q Q [ [ [ [ [ W [ W W W Q W Q W Q W Q W { { { { { { ",
"{ { { { { { { { { { { { { { { { { { { { { { { { { { { 7 7 0 l v L L L L L t 7 0 e e 0 0 0 5 8 4 4 0 5 0 5 F G G H G G G G G G G F H H F H F H H F H J Q { { { { ",
"{ { { { { { { { { { { { { { { { { { { { { { { { { { ! C 4 7 7 t K I Y R R R } R I c l t t z z c c z z z 0 S S S S S F S S S S S S S F F F S S S F F H J Q { { { ",
"{ { { { { { { { { { { { { { { { { { { { { { { { { { 1.Q Q 7 1 l 7 t L R } ....1.5.q.w.e.w.q.5...R L n t 0 Z S S S S S F S S S S S S S S F S S S S S F H J { { { ",
"{ { { { { { { { { { { { { { { { { { { { { { { { { { { { { { T 7 & 7 l l x I R ..3.5.w.e.e.w.3. .R n z 0 4 S S F S S S S S S S S S S S S S S S S S S S S J { { { ",
"{ { { { { { { { { { { { { { { { { { { { { { { { { { { { { { { { ! M 7 6 g x x g z c v A A n c z h e e 5 w F F S S S S S S S S S S S S S S S S S S S S S J { { { ",
"{ { { { { { { { { { { { { { { { { { { { { { { { { { { { { { { { { { { :   @ 5 5 e x z x x x z w 5 4 2 k F F S S S S S S S S S S S S S S S S S S S S S F J Q { { ",
"{ { { { { { { { { { { { { { { { { { { { { { { { { { { { { { { { { { { X   + N     . 2 w w 2 2 w M S S S S S S S S S S S S S S S S S S S S S S S S S F S J { { { ",
"{ { { { { { { { { { { { { { { { { { { { { { { { { { { { { { { { { { Q     > O   + M S S F F F S F S S S S S S S S S S S S S S S S S S S S S S S S S S S J { { { ",
"{ { { { { { { { { { { { { { { { { { { { { { { { { { { { { { { { { { J   . f + f F F S S S S S S S S S S S S S S S S S S S S S S S S S S S S S S S S S S J { { { ",
"{ { { { { { { { { { { { { { { { { { { { { { { { { { { { { { { { { { G   X Q { Q G F S S S F S S S S S S S S F S S S S S S S S S S S S S S S S F S S S S J Q { { ",
"{ { { { { { { { { { { { { { { { { { { { { { { { { { { { { { { { { { G   : { { W G F F S S S S S S S S S S S S S S S S S S S S S S S S S S S S S S S F F J { { { ",
"{ { { { { { { { { { { { { { { { { { { { { { { { { { { { { { { { { { J . S { { W G F S S S S S S S S S S S S S S S S S S S S S S S S S S S S S S F F F F J { Q W ",
"{ { { { { { { { { { { { { { { { { { { { { { { { { { { { { { { { { { { J { { { Q H S S F S S S F S S S S S S S S S S S S S S S S S S S F S S S S S S S S J { { 1.",
"{ { { { { { { { { { { { { { { { { { { { { { { { { { { { { { { { { { { { { { { Q H S S S S S S S S S S F S F S S S S S S S S S S S S S S S S S S S S S S J { 1.J ",
"{ { { { { { { { { { { { { { { { { { { { { { { { { { { { { { { { { { { { { { { Q H S S S S S S S S S S S S S S S S S S S S S S S S S S S S S S S S S S S J { { { ",
"{ { { { { { { { { { { { { { { { { { { { { { 5.{ { { { { { { { { { { { { { { { Q F S S S S S S S S S S S S S S S S S S S S S S S S S S S S S S S S S S S J { { { ",
"{ { { { { { { { { { { { { { { { { { { { { { { { { { { { { { { { { { { { { { { Q E J F F S S S S S S F F S S F S S S S S S S S S S S S S S S S S S F F J [ [ { { ",
"{ { { { { { { { { { { { { { { { { { { { { { { { { { { { { { { { { { { { { { { { Q E H H H H F H H F G F F H F H G H G G G G G G G H G F G G H F F H J [ { { { { ",
"1.{ { { { { { { { { { { { { { { { { { { { { { { { { { { { { { { { { { { { { { { { Q E Q Q Q Q { W W W W W W W W W W W W W W W W [ [ [ [ [ [ E [ [ E [ { { { { { ",
"{ { { { { { { { { { { { { { { { { { { { { { { { { { { { { { { { { { { { { { { { { { { { { { { { { { { { { { { { { { { { { { { { [ { [ { [ { { { { { { { { { { { "
};
